<svg width="377" height="343" viewBox="0 0 377 343" fill="none" xmlns="http://www.w3.org/2000/svg">
<path fill-rule="evenodd" clip-rule="evenodd" d="M6 139L142.577 209L143.5 282L6.85682 211.373L6 139Z" fill="#FFFBE4" stroke="#FFFBE4" stroke-width="0.566929"/>
<path fill-rule="evenodd" clip-rule="evenodd" d="M143.089 209.23L148.572 207.172L149.429 279.888L143.945 281.603L143.089 209.23Z" fill="#F8F4DD" stroke="#F8F4DD" stroke-width="0.566929"/>
<path fill-rule="evenodd" clip-rule="evenodd" d="M7.36865 139.258L12.8523 137.2L148.572 207.172L143.089 209.23L7.36865 139.258Z" fill="#FFFDF1" stroke="#FFFDF1" stroke-width="0.566929"/>
<path fill-rule="evenodd" clip-rule="evenodd" d="M255.675 161.896C276.067 147.147 292.175 122.622 304.513 92.0955C312.567 101.356 327.476 117.992 345.298 125.023V218.148L256.017 246.274L255.675 161.896Z" fill="#F8F4DD" stroke="#EFEEE2" stroke-width="0.566929"/>
<path fill-rule="evenodd" clip-rule="evenodd" d="M287.719 194.653L326.962 182.305V223.636L287.891 235.984L287.719 194.653Z" fill="#D8C096" stroke="#E3C99D" stroke-width="0.566929"/>
<path fill-rule="evenodd" clip-rule="evenodd" d="M293.203 146.461L316.851 138.915V163.954L293.374 171.329L293.203 146.461Z" fill="#373534" stroke="#373534" stroke-width="0.566929"/>
<path fill-rule="evenodd" clip-rule="evenodd" d="M119.098 81.634L255.503 151.949L255.846 246.274L119.269 175.959L119.098 81.634Z" fill="#FFFBE4" stroke="#FFFBE4" stroke-width="0.566929"/>
<path fill-rule="evenodd" clip-rule="evenodd" d="M134.692 129.654L161.424 143.374V167.384L134.692 153.664V129.654Z" fill="#E6E7E8" stroke="#E6E7E8" stroke-width="0.566929"/>
<path fill-rule="evenodd" clip-rule="evenodd" d="M198.096 162.239L224.829 175.959V199.969L198.096 186.249V162.239Z" fill="#E6E7E8" stroke="#E6E7E8" stroke-width="0.566929"/>
<path fill-rule="evenodd" clip-rule="evenodd" d="M157.826 205.8L157.483 211.46L255.675 180.418V174.759L157.826 205.8Z" fill="#373435" stroke="#373435" stroke-width="0.566929"/>
<path fill-rule="evenodd" clip-rule="evenodd" d="M151.999 202.713L157.826 205.629L157.654 211.46L151.828 208.544L151.999 202.713Z" fill="#373435" stroke="#373435" stroke-width="0.566929"/>
<path fill-rule="evenodd" clip-rule="evenodd" d="M157.826 205.629L255.675 174.759L250.02 172.015L152 202.713L157.826 205.629Z" fill="#727376" stroke="#373435" stroke-width="0.566929"/>
<path fill-rule="evenodd" clip-rule="evenodd" d="M124.924 189.336L124.753 194.995L222.773 163.954V158.294L124.924 189.336Z" fill="#373435" stroke="#373435" stroke-width="0.566929"/>
<path fill-rule="evenodd" clip-rule="evenodd" d="M119.098 186.249L124.924 189.165L124.753 194.995L118.926 192.08L119.098 186.249Z" fill="#373435" stroke="#373435" stroke-width="0.566929"/>
<path fill-rule="evenodd" clip-rule="evenodd" d="M124.924 189.165L222.773 158.295L217.289 155.551L119.098 186.249L124.924 189.165Z" fill="#727376" stroke="#373435" stroke-width="0.566929"/>
<path fill-rule="evenodd" clip-rule="evenodd" d="M87.9094 170.128L87.738 175.787L185.758 144.746V139.086L87.9094 170.128Z" fill="#373435" stroke="#373435" stroke-width="0.566929"/>
<path fill-rule="evenodd" clip-rule="evenodd" d="M82.0832 167.041L87.9096 169.957L87.7382 175.788L81.9119 172.872L82.0832 167.041Z" fill="#373435" stroke="#373435" stroke-width="0.566929"/>
<path fill-rule="evenodd" clip-rule="evenodd" d="M87.9094 169.957L185.758 139.087L180.274 136.343L82.083 167.041L87.9094 169.957Z" fill="#727376" stroke="#373435" stroke-width="0.566929"/>
<path fill-rule="evenodd" clip-rule="evenodd" d="M56.3786 153.664L56.2073 159.323L154.227 128.282V122.622L56.3786 153.664Z" fill="#373435" stroke="#373435" stroke-width="0.566929"/>
<path fill-rule="evenodd" clip-rule="evenodd" d="M50.5522 150.577L56.3786 153.493L56.2072 159.324L50.3809 156.408L50.5522 150.577Z" fill="#373435" stroke="#373435" stroke-width="0.566929"/>
<path fill-rule="evenodd" clip-rule="evenodd" d="M56.3786 153.493L154.227 122.623L148.744 119.879L50.5522 150.577L56.3786 153.493Z" fill="#727376" stroke="#373435" stroke-width="0.566929"/>
<path fill-rule="evenodd" clip-rule="evenodd" d="M27.5896 138.572L27.4182 144.232L125.438 113.19V107.531L27.5896 138.572Z" fill="#373435" stroke="#373435" stroke-width="0.566929"/>
<path fill-rule="evenodd" clip-rule="evenodd" d="M21.7632 135.485L27.5895 138.4L27.4182 144.231L21.5918 141.316L21.7632 135.485Z" fill="#373435" stroke="#373435" stroke-width="0.566929"/>
<path fill-rule="evenodd" clip-rule="evenodd" d="M27.5898 138.401L125.438 107.53L119.955 104.786L21.7634 135.485L27.5898 138.401Z" fill="#727376" stroke="#373435" stroke-width="0.566929"/>
<path fill-rule="evenodd" clip-rule="evenodd" d="M157.826 204.257L255.674 173.387V174.759L157.826 205.8V204.257Z" fill="#36CF1C" fill-opacity="0.42" stroke="#E6E7E8" stroke-opacity="0.501961" stroke-width="0.566929"/>
<path fill-rule="evenodd" clip-rule="evenodd" d="M157.826 204.257L255.675 173.387L221.916 155.894L123.896 186.935L157.826 204.257Z" fill="#36CF1C" fill-opacity="0.42" stroke="#E6E7E8" stroke-opacity="0.501961" stroke-width="0.566929"/>
<path fill-rule="evenodd" clip-rule="evenodd" d="M122.011 186.078L219.86 155.208V156.58L122.182 187.45L122.011 186.078Z" fill="#36CF1C" fill-opacity="0.42" stroke="#E6E7E8" stroke-opacity="0.501961" stroke-width="0.566929"/>
<path fill-rule="evenodd" clip-rule="evenodd" d="M122.011 186.078L219.86 155.208L184.901 137.029L87.2241 168.07L122.011 186.078Z" fill="#36CF1C" fill-opacity="0.42" stroke="#E6E7E8" stroke-opacity="0.501961" stroke-width="0.566929"/>
<path fill-rule="evenodd" clip-rule="evenodd" d="M84.9963 166.869L182.845 135.828V137.2L85.1677 168.241L84.9963 166.869Z" fill="#36CF1C" fill-opacity="0.42" stroke="#E6E7E8" stroke-opacity="0.501961" stroke-width="0.566929"/>
<path fill-rule="evenodd" clip-rule="evenodd" d="M84.9965 166.87L182.845 135.828L153.713 120.736L55.3506 151.606L84.9965 166.87Z" fill="#36CF1C" fill-opacity="0.42" stroke="#E6E7E8" stroke-opacity="0.501961" stroke-width="0.566929"/>
<path fill-rule="evenodd" clip-rule="evenodd" d="M54.4937 151.092L152.342 120.222V121.594L54.665 152.635L54.4937 151.092Z" fill="#36CF1C" fill-opacity="0.42" stroke="#E6E7E8" stroke-opacity="0.501961" stroke-width="0.566929"/>
<path fill-rule="evenodd" clip-rule="evenodd" d="M54.4937 151.092L152.342 120.222L119.269 103.243L21.9346 134.456L54.4937 151.092Z" fill="#36CF1C" fill-opacity="0.42" stroke="#E6E7E8" stroke-opacity="0.501961" stroke-width="0.566929"/>
<path fill-rule="evenodd" clip-rule="evenodd" d="M148.572 207.344L157.826 204.257L157.655 211.46L148.572 214.718V207.344Z" fill="#373435" stroke="#373435" stroke-width="0.566929"/>
<path fill-rule="evenodd" clip-rule="evenodd" d="M157.826 204.257L148.572 207.344L12.8523 137.2L21.9346 134.456L157.826 204.257Z" fill="#D2D3D5" stroke="#D2D3D5" stroke-width="0.566929"/>
<path fill-rule="evenodd" clip-rule="evenodd" d="M162.795 16.2926L303.656 87.9796C293.546 116.792 275.21 147.833 243.336 167.041L101.619 95.0111C138.976 72.3731 150.8 46.6481 162.795 16.2926Z" fill="#E4CC9E" stroke="#E6E7E8" stroke-width="0.566929"/>
<path fill-rule="evenodd" clip-rule="evenodd" d="M162.453 15.6066L303.656 87.9795L299.544 98.2695C280.694 81.977 204.265 57.4526 131.95 69.629C148.915 49.9066 155.427 34.9861 162.281 15.4351L162.453 15.6066Z" fill="#F5DEB1" stroke="#F5DEB1" stroke-width="0.566929"/>
<path fill-rule="evenodd" clip-rule="evenodd" d="M245.735 169.614C290.633 136 292.004 120.05 304.513 92.0956C327.819 120.908 341.699 122.28 373.23 138.229L374.944 135.657C331.075 118.85 324.049 110.103 303.999 87.9796C293.032 113.362 280.522 144.918 243.165 167.556L246.078 169.785L245.735 169.614Z" fill="#AD9B77" stroke="#BDBFC1" stroke-width="0.566929"/>
</svg>
