<svg width="2200" height="2000" viewBox="0 0 2200 2000" fill="none" xmlns="http://www.w3.org/2000/svg">
<path fill-rule="evenodd" clip-rule="evenodd" d="M1160 1960L1876 1612L1875 511L1522 694L1524 1183L1162 1359L1160 1960Z" fill="#F8F4DD" stroke="#F8F4DD" stroke-width="0.566929"/>
<path fill-rule="evenodd" clip-rule="evenodd" d="M1311 1456L1459 1385V1624L1307 1698L1311 1456Z" fill="#848688" stroke="#848688" stroke-width="1.99984"/>
<path fill-rule="evenodd" clip-rule="evenodd" d="M1636 1299L1789 1225L1784 1656L1632 1730L1636 1299Z" fill="#D8C096" stroke="#D8C096" stroke-width="1.99984"/>
<path fill-rule="evenodd" clip-rule="evenodd" d="M1641 776L1788 705L1789 944L1636 1018L1641 776Z" fill="#848688" stroke="#848688" stroke-width="1.99984"/>
<path fill-rule="evenodd" clip-rule="evenodd" d="M259.999 1032L1162 1359L1159 1960L259.999 1662V1032Z" fill="#FFFBE4" stroke="#FFFBE4" stroke-width="0.566929"/>
<path fill-rule="evenodd" clip-rule="evenodd" d="M416 1284L578 1337L573 1577L416 1524V1284Z" fill="#E6E7E8" stroke="#BDBFC1" stroke-width="1.99984"/>
<path fill-rule="evenodd" clip-rule="evenodd" d="M778.998 1404L940.998 1457L935.998 1697L778.998 1644V1404Z" fill="#E6E7E8" stroke="#BDBFC1" stroke-width="1.99984"/>
<path fill-rule="evenodd" clip-rule="evenodd" d="M620.999 370L1522 694L1523 1182L620.999 855V370Z" fill="#FFFBE4" stroke="#FFFBE4" stroke-width="0.566929"/>
<path fill-rule="evenodd" clip-rule="evenodd" d="M792 653L1339 851L1337 1115L789 916L792 653Z" fill="#E6E7E8" stroke="#BDBFC1" stroke-width="1.99984"/>
<path d="M1065 752L1063 1015" stroke="#BDBFC1" stroke-width="1.99984"/>
<path fill-rule="evenodd" clip-rule="evenodd" d="M620.999 370L979.999 187L1875 514L1522 694L620.999 370Z" fill="#FFFDEF" stroke="#FFFFEF" stroke-width="0.566929"/>
<path fill-rule="evenodd" clip-rule="evenodd" d="M974.999 225L1794 522L1619 613L970.999 380L974.999 225Z" fill="#FAF8EE" stroke="#FAF8EE" stroke-width="0.566929"/>
<path fill-rule="evenodd" clip-rule="evenodd" d="M686 372L975 225L971 380L770 402L686 372Z" fill="#F0ECD8" stroke="#F0ECD8" stroke-width="0.566929"/>
<path fill-rule="evenodd" clip-rule="evenodd" d="M971 380L1619 613L1515 666L770 402L971 380Z" fill="#A9ABAE" stroke="#A9ABAE" stroke-width="0.566929"/>
<path fill-rule="evenodd" clip-rule="evenodd" d="M1162 1359L259.999 1032L620.999 855L1524 1183L1162 1359Z" fill="#EDD3A5" stroke="#EDD3A5" stroke-width="0.566929"/>
<path fill-rule="evenodd" clip-rule="evenodd" d="M700.001 962L1247 1161L1070 1253L522 1054L700.001 962Z" fill="#CCECFB" stroke="#CEEBFF" stroke-width="0.566929"/>
<path fill-rule="evenodd" clip-rule="evenodd" d="M700 991.999L1213 1179L1070 1253L556 1067L700 991.999Z" fill="#405897" stroke="#314D94" stroke-width="0.566929"/>
<path d="M640.001 980.999C671.001 962.999 652.001 1024 652.001 1033" stroke="#373435" stroke-width="0.566929"/>
<path d="M661 971.999C692.001 953.999 673.001 1015 673.001 1024" stroke="#373435" stroke-width="0.566929"/>
<path d="M654.001 1024L674.001 1014" stroke="#373435" stroke-width="0.566929"/>
<path d="M656.001 1014L676.001 1004" stroke="#373435" stroke-width="0.566929"/>
<path d="M657 1005L677 995" stroke="#373435" stroke-width="0.566929"/>
<path d="M658.001 994.999L678.001 984.999" stroke="#373435" stroke-width="0.566929"/>
<path fill-rule="evenodd" clip-rule="evenodd" d="M259.999 1032L620.999 855L619.999 754L257.999 932L259.999 1032Z" fill="#BDBFC1" fill-opacity="0.501961" stroke="#BDBFC1" stroke-opacity="0.501961" stroke-width="0.566929"/>
<path fill-rule="evenodd" clip-rule="evenodd" d="M617.998 763L628.998 758L630.998 858L618.998 863L617.998 763Z" fill="#373435" stroke="#373435" stroke-width="0.566929"/>
<path fill-rule="evenodd" clip-rule="evenodd" d="M607.999 760L617.999 763L629.999 758L619.999 754L607.999 760Z" fill="#96989A" stroke="#96989A" stroke-width="0.566929"/>
<path fill-rule="evenodd" clip-rule="evenodd" d="M607.999 760L617.999 764L618.999 863L608.999 860L607.999 760Z" fill="#606062" stroke="#606062" stroke-width="0.566929"/>
<path fill-rule="evenodd" clip-rule="evenodd" d="M1051 1061L1354 806V827L1052 1080L1051 1061Z" fill="#373435" stroke="#373435" stroke-width="0.566929"/>
<path fill-rule="evenodd" clip-rule="evenodd" d="M1354 806L1336 800L1034 1054L1051 1060L1354 806Z" fill="#96989A" stroke="#96989A" stroke-width="0.566929"/>
<path fill-rule="evenodd" clip-rule="evenodd" d="M951.001 1024L1254 770V790L952.001 1044L951.001 1024Z" fill="#373435" stroke="#373435" stroke-width="0.566929"/>
<path fill-rule="evenodd" clip-rule="evenodd" d="M1254 770L1236 764L934 1018L950.999 1024L1254 770Z" fill="#96989A" stroke="#96989A" stroke-width="0.566929"/>
<path fill-rule="evenodd" clip-rule="evenodd" d="M841 984L1144 730V750L842 1004L841 984Z" fill="#373435" stroke="#373435" stroke-width="0.566929"/>
<path fill-rule="evenodd" clip-rule="evenodd" d="M1144 730L1126 723L824 978L841 984L1144 730Z" fill="#96989A" stroke="#96989A" stroke-width="0.566929"/>
<path fill-rule="evenodd" clip-rule="evenodd" d="M751.001 952L1054 698V718L752.001 972L751.001 952Z" fill="#373435" stroke="#373435" stroke-width="0.566929"/>
<path fill-rule="evenodd" clip-rule="evenodd" d="M1054 698L1036 691L734 945L750.999 952L1054 698Z" fill="#96989A" stroke="#96989A" stroke-width="0.566929"/>
<path fill-rule="evenodd" clip-rule="evenodd" d="M724 923L1027 669V689L725 943L724 923Z" fill="#373435" stroke="#373435" stroke-width="0.566929"/>
<path fill-rule="evenodd" clip-rule="evenodd" d="M1027 669L1009 662L707 917L724 923L1027 669Z" fill="#96989A" stroke="#96989A" stroke-width="0.566929"/>
<path fill-rule="evenodd" clip-rule="evenodd" d="M608.001 880L911.001 626V646L609.001 900L608.001 880Z" fill="#373435" stroke="#373435" stroke-width="0.566929"/>
<path fill-rule="evenodd" clip-rule="evenodd" d="M910.999 626.001L892.999 619.001L591 874L609 880L910.999 626.001Z" fill="#96989A" stroke="#96989A" stroke-width="0.566929"/>
<path fill-rule="evenodd" clip-rule="evenodd" d="M499 840.001L802.001 586V606.001L500 860.001L499 840.001Z" fill="#373435" stroke="#373435" stroke-width="0.566929"/>
<path fill-rule="evenodd" clip-rule="evenodd" d="M802 586L784 580L482 834L499 840L802 586Z" fill="#96989A" stroke="#96989A" stroke-width="0.566929"/>
<path fill-rule="evenodd" clip-rule="evenodd" d="M770.999 607L1340 815V835L770.999 627V607Z" fill="#606062" stroke="#606062" stroke-width="0.566929"/>
<path fill-rule="evenodd" clip-rule="evenodd" d="M784 599L1354 807L1340 815L770 607L784 599Z" fill="#373435" stroke="#373435" stroke-width="0.566929"/>
<path fill-rule="evenodd" clip-rule="evenodd" d="M1340 795L1354 787V807L1341 815L1340 795Z" fill="#373435" stroke="#373435" stroke-width="0.566929"/>
<path fill-rule="evenodd" clip-rule="evenodd" d="M770 587L1340 795V815L771 607L770 587Z" fill="#606062" stroke="#606062" stroke-width="0.566929"/>
<path fill-rule="evenodd" clip-rule="evenodd" d="M784 579L1354 786L1340 794L770 587L784 579Z" fill="#96989A" stroke="#96989A" stroke-width="0.566929"/>
<path fill-rule="evenodd" clip-rule="evenodd" d="M834 963L1137 709V729L835 983L834 963Z" fill="#373435" stroke="#373435" stroke-width="0.566929"/>
<path fill-rule="evenodd" clip-rule="evenodd" d="M1137 709L1119 702L815.999 957L833.999 963L1137 709Z" fill="#96989A" stroke="#96989A" stroke-width="0.566929"/>
<path fill-rule="evenodd" clip-rule="evenodd" d="M1341 815L1354 807L1353 827L1341 837V815Z" fill="#373435" stroke="#373435" stroke-width="0.566929"/>
<path fill-rule="evenodd" clip-rule="evenodd" d="M1039 1294L1011 1283V1059L1038 1069L1039 1294Z" fill="#606062" stroke="#606062" stroke-width="0.566929"/>
<path fill-rule="evenodd" clip-rule="evenodd" d="M1038 1293L1053 1286L1051 1060L1038 1069V1293Z" fill="#373435" stroke="#373435" stroke-width="0.566929"/>
<path fill-rule="evenodd" clip-rule="evenodd" d="M464 1085L437 1074L436 850L464 860V1085Z" fill="#606062" stroke="#606062" stroke-width="0.566929"/>
<path fill-rule="evenodd" clip-rule="evenodd" d="M464 1084L478 1077L477 853L464 860V1084Z" fill="#373435" stroke="#373435" stroke-width="0.566929"/>
<path fill-rule="evenodd" clip-rule="evenodd" d="M1511 1088L1522 1083L1524 1183L1512 1188L1511 1088Z" fill="#373435" stroke="#373435" stroke-width="0.566929"/>
<path fill-rule="evenodd" clip-rule="evenodd" d="M1500 1085L1511 1088L1523 1083L1513 1079L1500 1085Z" fill="#96989A" stroke="#96989A" stroke-width="0.566929"/>
<path fill-rule="evenodd" clip-rule="evenodd" d="M1500 1085L1511 1089L1512 1188L1502 1185L1500 1085Z" fill="#606062" stroke="#606062" stroke-width="0.566929"/>
<path fill-rule="evenodd" clip-rule="evenodd" d="M1161 1259L1173 1253L1174 1353L1162 1359L1161 1259Z" fill="#373435" stroke="#373435" stroke-width="0.566929"/>
<path fill-rule="evenodd" clip-rule="evenodd" d="M1151 1255L1161 1259L1174 1253L1164 1249L1151 1255Z" fill="#96989A" stroke="#96989A" stroke-width="0.566929"/>
<path fill-rule="evenodd" clip-rule="evenodd" d="M1151 1255L1161 1259L1162 1359L1152 1355L1151 1255Z" fill="#606062" stroke="#606062" stroke-width="0.566929"/>
<path fill-rule="evenodd" clip-rule="evenodd" d="M268.999 935.001L279.999 930.001L281.999 1030L269.999 1035L268.999 935.001Z" fill="#373435" stroke="#373435" stroke-width="0.566929"/>
<path fill-rule="evenodd" clip-rule="evenodd" d="M257.999 932L268.999 935L280.999 929L270.999 926L257.999 932Z" fill="#96989A" stroke="#96989A" stroke-width="0.566929"/>
<path fill-rule="evenodd" clip-rule="evenodd" d="M257.999 932L268.999 935L269.999 1035L259.999 1032L257.999 932Z" fill="#606062" stroke="#606062" stroke-width="0.566929"/>
<path fill-rule="evenodd" clip-rule="evenodd" d="M257.999 932L1161 1259L1162 1359L259.999 1032L257.999 932Z" fill="#BDBFC1" fill-opacity="0.501961" stroke="#BDBFC1" stroke-opacity="0.501961" stroke-width="0.566929"/>
<path fill-rule="evenodd" clip-rule="evenodd" d="M1161 1259L1523 1083L1524 1183L1162 1359L1161 1259Z" fill="#BDBFC1" fill-opacity="0.501961" stroke="#BDBFC1" stroke-opacity="0.501961" stroke-width="0.566929"/>
<path fill-rule="evenodd" clip-rule="evenodd" d="M1221 786L1327 824L1051 1056L945 1016L1221 786Z" fill="#36CF1C" fill-opacity="0.5" stroke="#36CF1C" stroke-opacity="0.5" stroke-width="0.566929"/>
<path fill-rule="evenodd" clip-rule="evenodd" d="M1051 1061L1327 829V825L1051 1056V1061Z" fill="#36CF1C" fill-opacity="0.5" stroke="#36CF1C" stroke-opacity="0.5" stroke-width="0.566929"/>
<path fill-rule="evenodd" clip-rule="evenodd" d="M1051 1061L945 1021V1016L1051 1055V1061Z" fill="#36CF1C" fill-opacity="0.5" stroke="#36CF1C" stroke-opacity="0.5" stroke-width="0.566929"/>
<path fill-rule="evenodd" clip-rule="evenodd" d="M1111 746L1217 784L940.999 1016L834.999 976L1111 746Z" fill="#36CF1C" fill-opacity="0.5" stroke="#36CF1C" stroke-opacity="0.5" stroke-width="0.566929"/>
<path fill-rule="evenodd" clip-rule="evenodd" d="M941 1021L1217 789V785L941 1016V1021Z" fill="#36CF1C" fill-opacity="0.5" stroke="#36CF1C" stroke-opacity="0.5" stroke-width="0.566929"/>
<path fill-rule="evenodd" clip-rule="evenodd" d="M940.999 1021L834.999 981V976L940.999 1015V1021Z" fill="#36CF1C" fill-opacity="0.5" stroke="#36CF1C" stroke-opacity="0.5" stroke-width="0.566929"/>
<path fill-rule="evenodd" clip-rule="evenodd" d="M1007 708L1107 744L830.999 976L732.999 939L1007 708Z" fill="#E6E7E8" fill-opacity="0.501961" stroke="#36CF1C" stroke-opacity="0.5" stroke-width="0.566929"/>
<path fill-rule="evenodd" clip-rule="evenodd" d="M830.999 981L1107 749V745L830.999 976V981Z" fill="#D2D3D5" fill-opacity="0.501961" stroke="#36CF1C" stroke-opacity="0.5" stroke-width="0.566929"/>
<path fill-rule="evenodd" clip-rule="evenodd" d="M830.999 981L733.999 945V939L830.999 975V981Z" fill="#BDBFC1" fill-opacity="0.501961" stroke="#36CF1C" stroke-opacity="0.5" stroke-width="0.566929"/>
<path fill-rule="evenodd" clip-rule="evenodd" d="M780 578L896 619L597 870L482 828L780 578Z" fill="#36CF1C" fill-opacity="0.5" stroke="#36CF1C" stroke-opacity="0.5" stroke-width="0.566929"/>
<path fill-rule="evenodd" clip-rule="evenodd" d="M598 874L894.999 625V620L598 870V874Z" fill="#36CF1C" fill-opacity="0.5" stroke="#36CF1C" stroke-opacity="0.5" stroke-width="0.566929"/>
<path fill-rule="evenodd" clip-rule="evenodd" d="M596.999 876L482 833V828L597.999 870L596.999 876Z" fill="#36CF1C" fill-opacity="0.5" stroke="#36CF1C" stroke-opacity="0.5" stroke-width="0.566929"/>
<path fill-rule="evenodd" clip-rule="evenodd" d="M899.998 621L1016 662L715.999 913L600.999 871L899.998 621Z" fill="#36CF1C" fill-opacity="0.5" stroke="#36CF1C" stroke-opacity="0.5" stroke-width="0.566929"/>
<path fill-rule="evenodd" clip-rule="evenodd" d="M716.999 918L1016 667V663L716.999 913V918Z" fill="#36CF1C" fill-opacity="0.5" stroke="#36CF1C" stroke-opacity="0.5" stroke-width="0.566929"/>
<path fill-rule="evenodd" clip-rule="evenodd" d="M716 919.001L600 876.001L601 871.001L717 913.001L716 919.001Z" fill="#36CF1C" fill-opacity="0.5" stroke="#36CF1C" stroke-opacity="0.5" stroke-width="0.566929"/>
<path fill-rule="evenodd" clip-rule="evenodd" d="M1021 664L1137 705L835 957L720 915L1021 664Z" fill="#36CF1C" fill-opacity="0.5" stroke="#36CF1C" stroke-opacity="0.5" stroke-width="0.566929"/>
<path fill-rule="evenodd" clip-rule="evenodd" d="M836 962L1137 709V705L836 957V962Z" fill="#36CF1C" fill-opacity="0.5" stroke="#36CF1C" stroke-opacity="0.5" stroke-width="0.566929"/>
<path fill-rule="evenodd" clip-rule="evenodd" d="M835 963L720 920V915L836 957L835 963Z" fill="#36CF1C" fill-opacity="0.5" stroke="#36CF1C" stroke-opacity="0.5" stroke-width="0.566929"/>
<path fill-rule="evenodd" clip-rule="evenodd" d="M436 850.001L1037 1068V1089L436 870.001V850.001Z" fill="#606062" stroke="#606062" stroke-width="0.566929"/>
<path fill-rule="evenodd" clip-rule="evenodd" d="M1037 1068L1051 1061V1081L1038 1089L1037 1068Z" fill="#373435" stroke="#373435" stroke-width="0.566929"/>
<path fill-rule="evenodd" clip-rule="evenodd" d="M450 842L1051 1061L1037 1068L436 850L450 842Z" fill="#BDBFC1" stroke="#373435" stroke-width="0.566929"/>
<path fill-rule="evenodd" clip-rule="evenodd" d="M436 830.001L1037 1048V1068L436 850.001V830.001Z" fill="#606062" stroke="#606062" stroke-width="0.566929"/>
<path fill-rule="evenodd" clip-rule="evenodd" d="M1037 1048L1051 1040V1061L1038 1069L1037 1048Z" fill="#373435" stroke="#373435" stroke-width="0.566929"/>
<path fill-rule="evenodd" clip-rule="evenodd" d="M450 822L1051 1040L1037 1048L436 830L450 822Z" fill="#727376" stroke="#727376" stroke-width="0.566929"/>
<path d="M1117 689V643" stroke="#373435" stroke-width="0.566929"/>
<path fill-rule="evenodd" clip-rule="evenodd" d="M1088 631L1117 643L1106 652L1082 642L1088 631Z" fill="#E6E7E8" stroke="#E6E7E8" stroke-width="0.566929"/>
<path fill-rule="evenodd" clip-rule="evenodd" d="M1106 652L1117 643V694L1106 693V652Z" fill="#A9ABAE" stroke="#A9ABAE" stroke-width="0.566929"/>
<path fill-rule="evenodd" clip-rule="evenodd" d="M1082 642L1106 652V693L1082 683V642Z" fill="#BDBFC1" stroke="#BDBFC1" stroke-width="0.566929"/>
</svg>
