<svg width="313" height="294" viewBox="0 0 313 294" fill="none" xmlns="http://www.w3.org/2000/svg">
    <path fill-rule="evenodd" clip-rule="evenodd" d="M171.8 287.82L282.78 234.054L282.625 63.9495L227.91 92.223L228.22 167.773L172.11 194.965L171.8 287.82Z" fill="#F8F4DD" stroke="#F8F4DD" stroke-width="0.566929"/>
    <path fill-rule="evenodd" clip-rule="evenodd" d="M195.205 209.952L218.145 198.983V235.908L194.585 247.341L195.205 209.952Z" fill="#848688" stroke="#848688" stroke-width="1.99984"/>
    <path fill-rule="evenodd" clip-rule="evenodd" d="M245.58 185.695L269.295 174.262L268.52 240.852L244.96 252.285L245.58 185.695Z" fill="#D8C096" stroke="#D8C096" stroke-width="1.99984"/>
    <path fill-rule="evenodd" clip-rule="evenodd" d="M246.355 104.892L269.14 93.9225L269.295 130.848L245.58 142.281L246.355 104.892Z" fill="#848688" stroke="#848688" stroke-width="1.99984"/>
    <path fill-rule="evenodd" clip-rule="evenodd" d="M32.3 144.444L172.11 194.965L171.645 287.82L32.3 241.779V144.444Z" fill="#FFFBE4" stroke="#FFFBE4" stroke-width="0.566929"/>
    <path fill-rule="evenodd" clip-rule="evenodd" d="M56.48 183.378L81.59 191.566L80.815 228.646L56.48 220.458V183.378Z" fill="#E6E7E8" stroke="#BDBFC1" stroke-width="1.99984"/>
    <path fill-rule="evenodd" clip-rule="evenodd" d="M112.745 201.918L137.855 210.107L137.08 247.187L112.745 238.998V201.918Z" fill="#E6E7E8" stroke="#BDBFC1" stroke-width="1.99984"/>
    <path fill-rule="evenodd" clip-rule="evenodd" d="M88.2551 42.165L227.91 92.2231L228.065 167.619L88.2551 117.098V42.165Z" fill="#FFFBE4" stroke="#FFFBE4" stroke-width="0.566929"/>
    <path fill-rule="evenodd" clip-rule="evenodd" d="M114.76 85.8884L199.545 116.479L199.235 157.267L114.295 126.522L114.76 85.8884Z" fill="#E6E7E8" stroke="#BDBFC1" stroke-width="1.99984"/>
    <path d="M157.075 101.184L156.765 141.817" stroke="#BDBFC1" stroke-width="1.99984"/>
    <path fill-rule="evenodd" clip-rule="evenodd" d="M88.2551 42.165L143.9 13.8915L282.625 64.413L227.91 92.223L88.2551 42.165Z" fill="#FFFDEF" stroke="#FFFFEF" stroke-width="0.566929"/>
    <path fill-rule="evenodd" clip-rule="evenodd" d="M143.125 19.7625L270.07 65.6489L242.945 79.7084L142.505 43.7099L143.125 19.7625Z" fill="#FAF8EE" stroke="#FAF8EE" stroke-width="0.566929"/>
    <path fill-rule="evenodd" clip-rule="evenodd" d="M98.3301 42.474L143.125 19.7625L142.505 43.71L111.35 47.109L98.3301 42.474Z" fill="#F0ECD8" stroke="#F0ECD8" stroke-width="0.566929"/>
    <path fill-rule="evenodd" clip-rule="evenodd" d="M142.505 43.71L242.945 79.7085L226.825 87.8969L111.35 47.109L142.505 43.71Z" fill="#A9ABAE" stroke="#A9ABAE" stroke-width="0.566929"/>
    <path fill-rule="evenodd" clip-rule="evenodd" d="M172.11 194.966L32.3 144.444L88.2551 117.098L228.22 167.774L172.11 194.966Z" fill="#EDD3A5" stroke="#EDD3A5" stroke-width="0.566929"/>
    <path fill-rule="evenodd" clip-rule="evenodd" d="M100.5 133.629L185.285 164.374L157.85 178.588L72.9099 147.843L100.5 133.629Z" fill="#CCECFB" stroke="#CEEBFF" stroke-width="0.566929"/>
    <path fill-rule="evenodd" clip-rule="evenodd" d="M100.5 138.264L180.015 167.155L157.85 178.588L78.1799 149.851L100.5 138.264Z" fill="#405897" stroke="#314D94" stroke-width="0.566929"/>
    <path d="M91.2 136.564C96.005 133.783 93.06 143.208 93.06 144.598" stroke="#373435" stroke-width="0.566929"/>
    <path d="M94.4548 135.174C99.2598 132.393 96.3148 141.817 96.3148 143.208" stroke="#373435" stroke-width="0.566929"/>
    <path d="M93.3701 143.208L96.4701 141.663" stroke="#373435" stroke-width="0.566929"/>
    <path d="M93.6799 141.663L96.7799 140.118" stroke="#373435" stroke-width="0.566929"/>
    <path d="M93.835 140.272L96.9349 138.727" stroke="#373435" stroke-width="0.566929"/>
    <path d="M93.99 138.727L97.09 137.182" stroke="#373435" stroke-width="0.566929"/>
    <path fill-rule="evenodd" clip-rule="evenodd" d="M32.3 144.444L88.255 117.097L88.1 101.493L31.99 128.994L32.3 144.444Z" fill="#BDBFC1" fill-opacity="0.501961" stroke="#BDBFC1" stroke-opacity="0.501961" stroke-width="0.566929"/>
    <path fill-rule="evenodd" clip-rule="evenodd" d="M87.79 102.883L89.495 102.111L89.805 117.561L87.945 118.333L87.79 102.883Z" fill="#373435" stroke="#373435" stroke-width="0.566929"/>
    <path fill-rule="evenodd" clip-rule="evenodd" d="M86.24 102.42L87.79 102.883L89.65 102.111L88.1 101.493L86.24 102.42Z" fill="#96989A" stroke="#96989A" stroke-width="0.566929"/>
    <path fill-rule="evenodd" clip-rule="evenodd" d="M86.24 102.42L87.79 103.038L87.945 118.333L86.395 117.87L86.24 102.42Z" fill="#606062" stroke="#606062" stroke-width="0.566929"/>
    <path fill-rule="evenodd" clip-rule="evenodd" d="M154.905 148.925L201.87 109.527V112.772L155.06 151.86L154.905 148.925Z" fill="#373435" stroke="#373435" stroke-width="0.566929"/>
    <path fill-rule="evenodd" clip-rule="evenodd" d="M201.87 109.527L199.08 108.6L152.27 147.843L154.905 148.77L201.87 109.527Z" fill="#96989A" stroke="#96989A" stroke-width="0.566929"/>
    <path fill-rule="evenodd" clip-rule="evenodd" d="M139.405 143.208L186.37 103.965V107.055L139.56 146.298L139.405 143.208Z" fill="#373435" stroke="#373435" stroke-width="0.566929"/>
    <path fill-rule="evenodd" clip-rule="evenodd" d="M186.37 103.965L183.58 103.038L136.77 142.281L139.405 143.208L186.37 103.965Z" fill="#96989A" stroke="#96989A" stroke-width="0.566929"/>
    <path fill-rule="evenodd" clip-rule="evenodd" d="M122.355 137.028L169.32 97.785V100.875L122.51 140.118L122.355 137.028Z" fill="#373435" stroke="#373435" stroke-width="0.566929"/>
    <path fill-rule="evenodd" clip-rule="evenodd" d="M169.32 97.7851L166.53 96.7036L119.72 136.101L122.355 137.028L169.32 97.7851Z" fill="#96989A" stroke="#96989A" stroke-width="0.566929"/>
    <path fill-rule="evenodd" clip-rule="evenodd" d="M108.405 132.084L155.37 92.8411V95.9311L108.56 135.174L108.405 132.084Z" fill="#373435" stroke="#373435" stroke-width="0.566929"/>
    <path fill-rule="evenodd" clip-rule="evenodd" d="M155.37 92.841L152.58 91.7595L105.77 131.003L108.405 132.084L155.37 92.841Z" fill="#96989A" stroke="#96989A" stroke-width="0.566929"/>
    <path fill-rule="evenodd" clip-rule="evenodd" d="M104.22 127.604L151.185 88.3606V91.4506L104.375 130.694L104.22 127.604Z" fill="#373435" stroke="#373435" stroke-width="0.566929"/>
    <path fill-rule="evenodd" clip-rule="evenodd" d="M151.185 88.3606L148.395 87.2791L101.585 126.677L104.22 127.604L151.185 88.3606Z" fill="#96989A" stroke="#96989A" stroke-width="0.566929"/>
    <path fill-rule="evenodd" clip-rule="evenodd" d="M86.2397 120.96L133.205 81.717V84.807L86.3947 124.05L86.2397 120.96Z" fill="#373435" stroke="#373435" stroke-width="0.566929"/>
    <path fill-rule="evenodd" clip-rule="evenodd" d="M133.205 81.7171L130.415 80.6356L83.6047 120.033L86.3947 120.96L133.205 81.7171Z" fill="#96989A" stroke="#96989A" stroke-width="0.566929"/>
    <path fill-rule="evenodd" clip-rule="evenodd" d="M69.3447 114.78L116.31 75.5371V78.6271L69.4997 117.87L69.3447 114.78Z" fill="#373435" stroke="#373435" stroke-width="0.566929"/>
    <path fill-rule="evenodd" clip-rule="evenodd" d="M116.31 75.5371L113.52 74.6101L66.71 113.853L69.345 114.78L116.31 75.5371Z" fill="#96989A" stroke="#96989A" stroke-width="0.566929"/>
    <path fill-rule="evenodd" clip-rule="evenodd" d="M111.505 78.7816L199.7 110.918V114.008L111.505 81.8716V78.7816Z" fill="#606062" stroke="#606062" stroke-width="0.566929"/>
    <path fill-rule="evenodd" clip-rule="evenodd" d="M113.52 77.5455L201.87 109.682L199.7 110.918L111.35 78.7815L113.52 77.5455Z" fill="#373435" stroke="#373435" stroke-width="0.566929"/>
    <path fill-rule="evenodd" clip-rule="evenodd" d="M199.7 107.828L201.87 106.592V109.682L199.855 110.918L199.7 107.828Z" fill="#373435" stroke="#373435" stroke-width="0.566929"/>
    <path fill-rule="evenodd" clip-rule="evenodd" d="M111.35 75.6915L199.7 107.828V110.918L111.505 78.7815L111.35 75.6915Z" fill="#606062" stroke="#606062" stroke-width="0.566929"/>
    <path fill-rule="evenodd" clip-rule="evenodd" d="M113.52 74.4556L201.87 106.437L199.7 107.673L111.35 75.6916L113.52 74.4556Z" fill="#96989A" stroke="#96989A" stroke-width="0.566929"/>
    <path fill-rule="evenodd" clip-rule="evenodd" d="M121.27 133.784L168.235 94.5405V97.6305L121.425 136.874L121.27 133.784Z" fill="#373435" stroke="#373435" stroke-width="0.566929"/>
    <path fill-rule="evenodd" clip-rule="evenodd" d="M168.235 94.5406L165.445 93.4591L118.48 132.857L121.27 133.784L168.235 94.5406Z" fill="#96989A" stroke="#96989A" stroke-width="0.566929"/>
    <path fill-rule="evenodd" clip-rule="evenodd" d="M199.855 110.918L201.87 109.682L201.715 112.772L199.855 114.317V110.918Z" fill="#373435" stroke="#373435" stroke-width="0.566929"/>
    <path fill-rule="evenodd" clip-rule="evenodd" d="M153.045 184.923L148.705 183.224V148.616L152.89 150.161L153.045 184.923Z" fill="#606062" stroke="#606062" stroke-width="0.566929"/>
    <path fill-rule="evenodd" clip-rule="evenodd" d="M152.89 184.769L155.215 183.687L154.905 148.77L152.89 150.161V184.769Z" fill="#373435" stroke="#373435" stroke-width="0.566929"/>
    <path fill-rule="evenodd" clip-rule="evenodd" d="M63.9198 152.633L59.7348 150.933L59.5798 116.325L63.9198 117.87V152.633Z" fill="#606062" stroke="#606062" stroke-width="0.566929"/>
    <path fill-rule="evenodd" clip-rule="evenodd" d="M63.9199 152.478L66.0899 151.397L65.9349 116.789L63.9199 117.87V152.478Z" fill="#373435" stroke="#373435" stroke-width="0.566929"/>
    <path fill-rule="evenodd" clip-rule="evenodd" d="M226.205 153.096L227.91 152.323L228.22 167.774L226.36 168.546L226.205 153.096Z" fill="#373435" stroke="#373435" stroke-width="0.566929"/>
    <path fill-rule="evenodd" clip-rule="evenodd" d="M224.5 152.633L226.205 153.096L228.065 152.324L226.515 151.706L224.5 152.633Z" fill="#96989A" stroke="#96989A" stroke-width="0.566929"/>
    <path fill-rule="evenodd" clip-rule="evenodd" d="M224.5 152.633L226.205 153.251L226.36 168.546L224.81 168.083L224.5 152.633Z" fill="#606062" stroke="#606062" stroke-width="0.566929"/>
    <path fill-rule="evenodd" clip-rule="evenodd" d="M171.955 179.516L173.815 178.589L173.97 194.039L172.11 194.966L171.955 179.516Z" fill="#373435" stroke="#373435" stroke-width="0.566929"/>
    <path fill-rule="evenodd" clip-rule="evenodd" d="M170.405 178.898L171.955 179.516L173.97 178.589L172.42 177.971L170.405 178.898Z" fill="#96989A" stroke="#96989A" stroke-width="0.566929"/>
    <path fill-rule="evenodd" clip-rule="evenodd" d="M170.405 178.898L171.955 179.516L172.11 194.966L170.56 194.348L170.405 178.898Z" fill="#606062" stroke="#606062" stroke-width="0.566929"/>
    <path fill-rule="evenodd" clip-rule="evenodd" d="M33.6951 129.458L35.4001 128.685L35.7101 144.135L33.8501 144.908L33.6951 129.458Z" fill="#373435" stroke="#373435" stroke-width="0.566929"/>
    <path fill-rule="evenodd" clip-rule="evenodd" d="M31.99 128.994L33.695 129.458L35.555 128.531L34.005 128.067L31.99 128.994Z" fill="#96989A" stroke="#96989A" stroke-width="0.566929"/>
    <path fill-rule="evenodd" clip-rule="evenodd" d="M31.99 128.994L33.695 129.458L33.85 144.907L32.3 144.444L31.99 128.994Z" fill="#606062" stroke="#606062" stroke-width="0.566929"/>
    <path fill-rule="evenodd" clip-rule="evenodd" d="M31.99 128.994L171.955 179.515L172.11 194.965L32.3 144.444L31.99 128.994Z" fill="#BDBFC1" fill-opacity="0.501961" stroke="#BDBFC1" stroke-opacity="0.501961" stroke-width="0.566929"/>
    <path fill-rule="evenodd" clip-rule="evenodd" d="M171.955 179.516L228.065 152.323L228.22 167.774L172.11 194.966L171.955 179.516Z" fill="#BDBFC1" fill-opacity="0.501961" stroke="#BDBFC1" stroke-opacity="0.501961" stroke-width="0.566929"/>
    <path fill-rule="evenodd" clip-rule="evenodd" d="M181.255 106.437L197.685 112.308L154.905 148.152L138.475 141.972L181.255 106.437Z" fill="#36CF1C" fill-opacity="0.5" stroke="#36CF1C" stroke-opacity="0.5" stroke-width="0.566929"/>
    <path fill-rule="evenodd" clip-rule="evenodd" d="M154.905 148.925L197.685 113.081V112.463L154.905 148.152V148.925Z" fill="#36CF1C" fill-opacity="0.5" stroke="#36CF1C" stroke-opacity="0.5" stroke-width="0.566929"/>
    <path fill-rule="evenodd" clip-rule="evenodd" d="M154.905 148.925L138.475 142.745V141.972L154.905 147.998V148.925Z" fill="#36CF1C" fill-opacity="0.5" stroke="#36CF1C" stroke-opacity="0.5" stroke-width="0.566929"/>
    <path fill-rule="evenodd" clip-rule="evenodd" d="M164.205 100.257L180.635 106.128L137.855 141.972L121.425 135.792L164.205 100.257Z" fill="#36CF1C" fill-opacity="0.5" stroke="#36CF1C" stroke-opacity="0.5" stroke-width="0.566929"/>
    <path fill-rule="evenodd" clip-rule="evenodd" d="M137.855 142.745L180.635 106.901V106.283L137.855 141.972V142.745Z" fill="#36CF1C" fill-opacity="0.5" stroke="#36CF1C" stroke-opacity="0.5" stroke-width="0.566929"/>
    <path fill-rule="evenodd" clip-rule="evenodd" d="M137.855 142.745L121.425 136.565V135.792L137.855 141.818V142.745Z" fill="#36CF1C" fill-opacity="0.5" stroke="#36CF1C" stroke-opacity="0.5" stroke-width="0.566929"/>
    <path fill-rule="evenodd" clip-rule="evenodd" d="M148.085 94.386L163.585 99.948L120.805 135.792L105.615 130.076L148.085 94.386Z" fill="#E6E7E8" fill-opacity="0.501961" stroke="#36CF1C" stroke-opacity="0.5" stroke-width="0.566929"/>
    <path fill-rule="evenodd" clip-rule="evenodd" d="M120.805 136.565L163.585 100.721V100.103L120.805 135.792V136.565Z" fill="#D2D3D5" fill-opacity="0.501961" stroke="#36CF1C" stroke-opacity="0.5" stroke-width="0.566929"/>
    <path fill-rule="evenodd" clip-rule="evenodd" d="M120.805 136.564L105.77 131.002V130.075L120.805 135.637V136.564Z" fill="#BDBFC1" fill-opacity="0.501961" stroke="#36CF1C" stroke-opacity="0.5" stroke-width="0.566929"/>
    <path fill-rule="evenodd" clip-rule="evenodd" d="M112.9 74.301L130.88 80.6355L84.535 119.415L66.71 112.926L112.9 74.301Z" fill="#36CF1C" fill-opacity="0.5" stroke="#36CF1C" stroke-opacity="0.5" stroke-width="0.566929"/>
    <path fill-rule="evenodd" clip-rule="evenodd" d="M84.6899 120.033L130.725 81.5625V80.79L84.6899 119.415V120.033Z" fill="#36CF1C" fill-opacity="0.5" stroke="#36CF1C" stroke-opacity="0.5" stroke-width="0.566929"/>
    <path fill-rule="evenodd" clip-rule="evenodd" d="M84.535 120.342L66.71 113.699V112.926L84.69 119.415L84.535 120.342Z" fill="#36CF1C" fill-opacity="0.5" stroke="#36CF1C" stroke-opacity="0.5" stroke-width="0.566929"/>
    <path fill-rule="evenodd" clip-rule="evenodd" d="M131.5 80.9446L149.48 87.2791L102.98 126.059L85.155 119.57L131.5 80.9446Z" fill="#36CF1C" fill-opacity="0.5" stroke="#36CF1C" stroke-opacity="0.5" stroke-width="0.566929"/>
    <path fill-rule="evenodd" clip-rule="evenodd" d="M103.135 126.831L149.48 88.0516V87.4336L103.135 126.059V126.831Z" fill="#36CF1C" fill-opacity="0.5" stroke="#36CF1C" stroke-opacity="0.5" stroke-width="0.566929"/>
    <path fill-rule="evenodd" clip-rule="evenodd" d="M102.98 126.986L85 120.342L85.155 119.57L103.135 126.059L102.98 126.986Z" fill="#36CF1C" fill-opacity="0.5" stroke="#36CF1C" stroke-opacity="0.5" stroke-width="0.566929"/>
    <path fill-rule="evenodd" clip-rule="evenodd" d="M150.255 87.588L168.235 93.9225L121.425 132.857L103.6 126.368L150.255 87.588Z" fill="#36CF1C" fill-opacity="0.5" stroke="#36CF1C" stroke-opacity="0.5" stroke-width="0.566929"/>
    <path fill-rule="evenodd" clip-rule="evenodd" d="M121.58 133.629L168.235 94.5405V93.9225L121.58 132.856V133.629Z" fill="#36CF1C" fill-opacity="0.5" stroke="#36CF1C" stroke-opacity="0.5" stroke-width="0.566929"/>
    <path fill-rule="evenodd" clip-rule="evenodd" d="M121.425 133.783L103.6 127.14V126.367L121.58 132.856L121.425 133.783Z" fill="#36CF1C" fill-opacity="0.5" stroke="#36CF1C" stroke-opacity="0.5" stroke-width="0.566929"/>
    <path fill-rule="evenodd" clip-rule="evenodd" d="M59.5798 116.325L152.735 150.006V153.251L59.5798 119.415V116.325Z" fill="#606062" stroke="#606062" stroke-width="0.566929"/>
    <path fill-rule="evenodd" clip-rule="evenodd" d="M152.735 150.006L154.905 148.925V152.015L152.89 153.251L152.735 150.006Z" fill="#373435" stroke="#373435" stroke-width="0.566929"/>
    <path fill-rule="evenodd" clip-rule="evenodd" d="M61.7498 115.089L154.905 148.925L152.735 150.006L59.5798 116.325L61.7498 115.089Z" fill="#BDBFC1" stroke="#373435" stroke-width="0.566929"/>
    <path fill-rule="evenodd" clip-rule="evenodd" d="M59.5798 113.235L152.735 146.916V150.006L59.5798 116.325V113.235Z" fill="#606062" stroke="#606062" stroke-width="0.566929"/>
    <path fill-rule="evenodd" clip-rule="evenodd" d="M152.735 146.916L154.905 145.68V148.925L152.89 150.161L152.735 146.916Z" fill="#373435" stroke="#373435" stroke-width="0.566929"/>
    <path fill-rule="evenodd" clip-rule="evenodd" d="M61.7498 111.999L154.905 145.68L152.735 146.916L59.5798 113.235L61.7498 111.999Z" fill="#727376" stroke="#727376" stroke-width="0.566929"/>
    <path d="M165.135 91.4505V84.3435" stroke="#373435" stroke-width="0.566929"/>
    <path fill-rule="evenodd" clip-rule="evenodd" d="M160.64 82.4895L165.135 84.3435L163.43 85.734L159.71 84.189L160.64 82.4895Z" fill="#E6E7E8" stroke="#E6E7E8" stroke-width="0.566929"/>
    <path fill-rule="evenodd" clip-rule="evenodd" d="M163.43 85.734L165.135 84.3435V92.223L163.43 92.0685V85.734Z" fill="#A9ABAE" stroke="#A9ABAE" stroke-width="0.566929"/>
    <path fill-rule="evenodd" clip-rule="evenodd" d="M159.71 84.189L163.43 85.734V92.0685L159.71 90.5235V84.189Z" fill="#BDBFC1" stroke="#BDBFC1" stroke-width="0.566929"/>
</svg>
