<svg width="292" height="266" viewBox="0 0 292 266" fill="none">
    <path fill-rule="evenodd" clip-rule="evenodd" d="M46.9856 244.454L140.558 226.366L140.824 38.9691L47.6492 22.4771L46.9856 244.454ZM152.902 40.9641L228.557 54.2641L228.822 209.209L152.902 223.972V41.0971V40.9641ZM236.52 55.7271L283.771 64.1061L283.24 198.702L236.122 207.879L236.52 55.8601V55.7271Z" fill="#E6E7E8" stroke="#E6E7E8" stroke-width="1.99984"/>
    <path class="svg-veneziana-change" fill-rule="evenodd" clip-rule="evenodd" d="M125.427 167.58L47.251 174.895L47.5164 244.454L140.558 226.366V214.928L125.427 167.58Z" fill="#FEFEFE" stroke="#FEFEFE" stroke-width="1.99984"/>
    <path class="svg-veneziana-change-line" d="M140.558 214.928L125.295 167.713M127.816 216.923L112.287 168.91M115.207 218.918L99.2801 170.107M102.466 220.913L86.5382 171.703M89.8564 222.775L73.3982 172.634M76.7164 224.903L60.5237 173.964M64.6382 226.765L47.6491 174.629M52.2946 228.76L46.8528 212.135M127.684 216.923V228.893M114.809 218.652V231.686M102.2 221.046V233.947M89.7237 222.908V236.208M77.1146 224.903V238.735M64.5055 226.765V241.129M52.4273 228.76V243.523" stroke="#36CF1C" stroke-width="1.99984"/>
    <path class="svg-veneziana-change" fill-rule="evenodd" clip-rule="evenodd" d="M46.8528 174.895L140.293 166.25L140.691 155.078L125.295 99.351L47.5164 93.233L46.8528 174.895Z" fill="#FEFEFE" stroke="#FEFEFE" stroke-width="1.99984"/>
    <path class="svg-veneziana-change-line" d="M46.8528 174.895L140.293 166.25M140.691 155.078L125.295 99.3511M128.082 155.743L111.756 98.1541M114.809 156.408L98.4837 97.0901M101.536 156.674L84.6801 96.0261M88.7946 157.871L71.2746 94.9621M75.5219 158.669L57.8691 93.8981M62.5146 159.467L47.7819 106.134M49.7728 159.733L47.6491 152.285M128.48 155.61L128.347 167.181M115.207 156.275V168.378M101.935 156.541L101.802 169.575M89.0601 157.738L88.9273 170.772M75.5219 158.137V172.501M62.3819 159.334L62.2491 173.299M49.5073 160.132V174.496" stroke="#36CF1C" stroke-width="1.99984"/>
    <path class="svg-veneziana-change" fill-rule="evenodd" clip-rule="evenodd" d="M48.0473 22.4771L125.693 36.176L140.824 87.248V100.548L47.5164 93.233L48.0473 22.4771Z" fill="#FEFEFE" stroke="#FEFEFE" stroke-width="1.99984"/>
    <path class="svg-veneziana-change-line" d="M47.5163 93.233L140.824 100.548M127.285 85.918L111.624 33.649M113.747 84.721L97.6873 30.723M140.956 87.115L125.825 36.176M100.076 83.391L83.7509 28.728M86.4054 82.061L69.5491 26.201M72.7345 80.731L55.7454 23.674M48.18 22.344L125.825 36.043M59.0636 79.401L48.7109 44.289M59.0636 79.268V93.765M72.6018 80.598V94.829M86.2727 81.795L86.0073 95.893M99.8109 83.125L99.6782 96.957M113.349 84.322V98.021M126.887 85.652L126.755 99.085M47.7818 22.078L47.1182 92.701M140.425 86.716V100.016" stroke="#36CF1C" stroke-width="1.99984"/>
    <path class="svg-veneziana-change" fill-rule="evenodd" clip-rule="evenodd" d="M215.549 159.733L152.902 165.452V223.972L228.822 209.209V200.697L215.549 159.733Z" fill="#FEFEFE" stroke="#FEFEFE" stroke-width="1.99984"/>
    <path class="svg-veneziana-change-line" d="M165.909 210.805V221.445M178.385 208.677V219.184M191.26 206.682V216.524M203.604 204.82V214.13M216.213 202.692L215.947 211.736M165.909 210.938L152.902 171.836M178.385 208.81L163.653 164.388M190.995 206.682L176.527 163.191M203.471 204.687L189.402 161.994M216.08 202.559L202.542 160.93M228.689 200.431L215.416 159.467" stroke="#36CF1C" stroke-width="1.99984"/>
    <path class="svg-veneziana-change" fill-rule="evenodd" clip-rule="evenodd" d="M228.689 158.669L152.902 165.452V101.08L215.018 105.735L228.689 149.891V158.669Z" fill="#FEFEFE" stroke="#FEFEFE" stroke-width="1.99984"/>
    <path class="svg-veneziana-change-line" d="M152.902 165.452L228.689 158.669M228.689 149.891L215.018 105.735M215.682 150.29L201.347 104.538M202.807 150.955L195.175 127.215L187.544 103.474M189.8 151.886L174.138 102.41M176.793 152.684L160.335 101.745M163.653 153.615L153.035 119.567M215.682 150.157V159.733M202.94 151.088V161.063M189.8 152.152V162.127M177.058 152.817V163.191M163.918 153.615V164.388" stroke="#36CF1C" stroke-width="1.99984"/>
    <path class="svg-veneziana-change" fill-rule="evenodd" clip-rule="evenodd" d="M152.902 41.097L215.284 52.003L228.689 97.223V106.666L152.902 101.08V41.097Z" fill="#FEFEFE" stroke="#FEFEFE" stroke-width="1.99984"/>
    <path class="svg-veneziana-change-line" d="M152.902 101.08L228.689 106.666M228.689 97.2231L215.284 52.0031M214.753 95.3611L201.215 49.3431M201.082 94.2971L186.88 46.9491M187.411 92.7011L173.076 44.2891M173.873 91.1051L159.007 41.4961M159.936 89.7751L152.636 65.1701M214.487 95.0951L214.355 105.336M200.949 94.0311V104.272M187.013 92.1691V103.208M173.607 91.1051V102.144M159.671 89.6421V101.346" stroke="#36CF1C" stroke-width="1.99984"/>
    <path class="svg-veneziana-change" fill-rule="evenodd" clip-rule="evenodd" d="M236.255 157.871L274.347 154.546L283.24 191.919V198.702L236.122 207.879L236.255 157.871Z" fill="#FEFEFE" stroke="#FEFEFE" stroke-width="1.99984"/>
    <path class="svg-veneziana-change-line" d="M245.015 198.17V206.15M257.756 195.643V203.889M270.366 194.18V201.096M245.015 197.904L236.255 161.329M257.889 195.377L248.466 156.541M270.631 193.781L261.473 155.477M283.373 191.786L274.48 154.413" stroke="#36CF1C" stroke-width="1.99984"/>
    <path class="svg-veneziana-change" fill-rule="evenodd" clip-rule="evenodd" d="M236.52 107.331L274.347 110.124L283.373 146.699V153.748L236.255 158.004L236.52 107.331Z" fill="#FEFEFE" stroke="#FEFEFE" stroke-width="1.99984"/>
    <path class="svg-veneziana-change-line" d="M237.847 149.093V157.738M244.085 148.96V157.206M257.225 148.162V156.009M270.631 147.364V154.812M237.98 149.093L236.387 143.906M244.351 148.96L236.52 117.439M257.358 148.295L247.271 108.129M270.631 147.497L260.942 109.193M283.638 146.832L274.613 110.257M236.52 158.004L283.771 153.748" stroke="#36CF1C" stroke-width="1.99984"/>
    <path class="svg-veneziana-change" fill-rule="evenodd" clip-rule="evenodd" d="M283.506 110.789L236.52 107.331V55.7271L274.48 62.5101L283.638 102.809L283.506 110.789Z" fill="#FEFEFE" stroke="#FEFEFE" stroke-width="1.99984"/>
    <path class="svg-veneziana-change-line" d="M283.638 102.809L274.48 62.3771M236.387 107.198L283.638 110.656M269.967 101.08L260.411 59.8501M256.297 100.016L246.607 57.5891M242.758 98.6861L236.52 71.1551M269.967 101.213V109.725M256.297 99.8831V108.661M242.626 98.4201V107.597" stroke="#36CF1C" stroke-width="1.99984"/>
    <path class="svg-veneziana-change-perfil-frente" fill-rule="evenodd" clip-rule="evenodd" d="M29.8638 6.2511L289.877 58.2541L289.213 204.687L28.4038 261.345L152.902 223.972L283.24 198.702L283.771 64.1061L239.706 56.3921L236.122 207.879L228.822 209.209L228.557 54.3971L152.902 43.0921V223.972L140.558 226.366L140.824 38.9691L48.0474 22.4771L47.5165 244.454L140.558 226.366L152.902 223.972L28.4038 261.345L29.8638 6.2511Z" fill="#D2D3D5"/>
    <path class="svg-veneziana-change-perfil-frente-line" d="M28.4038 261.345L289.213 204.687L289.877 58.2541L29.8638 6.2511L28.4038 261.345ZM28.4038 261.345L152.902 223.972M152.902 223.972L283.24 198.702L283.771 64.1061L239.706 56.3921L236.122 207.879L228.822 209.209L228.557 54.3971L152.902 43.0921V223.972ZM152.902 223.972L140.558 226.366M140.558 226.366L140.824 38.9691L48.0474 22.4771L47.5165 244.454L140.558 226.366Z" stroke="#D2D3D5" stroke-width="1.99984"/>
    <path class="svg-veneziana-change-perfil-lateral" fill-rule="evenodd" clip-rule="evenodd" d="M4.64556 6.11804L29.8637 6.25104L28.4037 261.345H3.58374L4.64556 6.11804Z" fill="#96989A" stroke="#96989A" stroke-width="1.99984"/>
</svg>
