<svg width="2200" height="2000" viewBox="0 0 2200 2000" fill="none" xmlns="http://www.w3.org/2000/svg">
<path fill-rule="evenodd" clip-rule="evenodd" d="M1794 313H1814V713H1794V313Z" fill="#E6E7E8" stroke="#E6E7E8" stroke-width="0.566929"/>
<path fill-rule="evenodd" clip-rule="evenodd" d="M1972 51L1982 47V307L1972 313V51Z" fill="#96989A" stroke="#96989A" stroke-width="0.566929"/>
<path fill-rule="evenodd" clip-rule="evenodd" d="M1814 313H1825V698L1814 709V313Z" fill="#96989A" stroke="#96989A" stroke-width="0.566929"/>
<path d="M1972 51H1626V313H1972V51Z" fill="#E6E7E8" stroke="#E6E7E8" stroke-width="0.566929"/>
<path fill-rule="evenodd" clip-rule="evenodd" d="M665 782L1174 992L1617 823L1166 660L665 782Z" fill="#FFEAC3" stroke="#FFEAC3" stroke-width="0.566929"/>
<path fill-rule="evenodd" clip-rule="evenodd" d="M412 1518L914 1726L1169 1832L1429 1732L1836 1577L1807 1555L1805 1159L452 1101L451 1493L412 1518Z" fill="#FFEAC3" stroke="#FFEBC6" stroke-width="0.566929"/>
<path fill-rule="evenodd" clip-rule="evenodd" d="M1166 660L1168 443L1907 713L1617 823L1166 660Z" fill="#FAF8EE" stroke="#FAF8EE" stroke-width="0.566929"/>
<path fill-rule="evenodd" clip-rule="evenodd" d="M1168 443V660L665 782L337 645L1168 443Z" fill="#F0ECD8" stroke="#F7EFD6" stroke-width="0.566929"/>
<path fill-rule="evenodd" clip-rule="evenodd" d="M1289 528L1380 565V684L1289 647V528Z" fill="#E6E7E8" stroke="#BDBFC1" stroke-width="0.566929"/>
<path fill-rule="evenodd" clip-rule="evenodd" d="M1544 620L1635 656V775L1544 738V620Z" fill="#E6E7E8" stroke="#BDBFC1" stroke-width="0.566929"/>
<path fill-rule="evenodd" clip-rule="evenodd" d="M811 1390L890 1337L1096 1422L1017 1475L811 1390Z" fill="#E0BD81" stroke="#E0BD81" stroke-width="0.566929"/>
<path fill-rule="evenodd" clip-rule="evenodd" d="M811 1390L1017 1474V1485L811 1400V1390Z" fill="#BD9F6A" stroke="#BD9E63" stroke-width="0.566929"/>
<path fill-rule="evenodd" clip-rule="evenodd" d="M811 1400L818 1403L816 1446L810 1444L811 1400Z" fill="#BD9F6A" stroke="#BD9E63" stroke-width="0.566929"/>
<path fill-rule="evenodd" clip-rule="evenodd" d="M818 1403L823 1405L822 1442L816 1447L818 1403Z" fill="#9F855A" stroke="#9C8252" stroke-width="0.566929"/>
<path fill-rule="evenodd" clip-rule="evenodd" d="M1017 1474L1096 1422V1432L1017 1485V1474Z" fill="#9F855A" stroke="#9C8252" stroke-width="0.566929"/>
<path fill-rule="evenodd" clip-rule="evenodd" d="M1084 1440L1090 1437V1481L1083 1478L1084 1440Z" fill="#BD9F6A" stroke="#BD9E63" stroke-width="0.566929"/>
<path fill-rule="evenodd" clip-rule="evenodd" d="M1090 1436L1096 1432L1095 1476L1090 1481V1436Z" fill="#9F855A" stroke="#9C8252" stroke-width="0.566929"/>
<path fill-rule="evenodd" clip-rule="evenodd" d="M1033 1322L1076 1340V1401L1032 1383L1033 1322Z" fill="#BD9F6A" stroke="#BD9E63" stroke-width="0.566929"/>
<path fill-rule="evenodd" clip-rule="evenodd" d="M1032 1383L1076 1401L1065 1409L1021 1391L1032 1383Z" fill="#E0BD81" stroke="#DEBE7B" stroke-width="0.566929"/>
<path fill-rule="evenodd" clip-rule="evenodd" d="M1076 1401L1065 1409L1076 1413V1401Z" fill="#9F855A" stroke="#9C8252" stroke-width="0.566929"/>
<path fill-rule="evenodd" clip-rule="evenodd" d="M935 1282L978 1300V1362L934 1343L935 1282Z" fill="#BD9F6A" stroke="#BD9E63" stroke-width="0.566929"/>
<path fill-rule="evenodd" clip-rule="evenodd" d="M934 1343L978 1362L967 1370L922 1351L934 1343Z" fill="#E0BD81" stroke="#DEBE7B" stroke-width="0.566929"/>
<path fill-rule="evenodd" clip-rule="evenodd" d="M978 1362L967 1370L978 1373V1362Z" fill="#9F855A" stroke="#9C8252" stroke-width="0.566929"/>
<path fill-rule="evenodd" clip-rule="evenodd" d="M946 1500L950 1497L951 1462L947 1465L946 1500Z" fill="#9F855A" stroke="#9F855A" stroke-width="0.566929"/>
<path fill-rule="evenodd" clip-rule="evenodd" d="M985 1516L989 1514V1479L985 1482V1516Z" fill="#9F855A" stroke="#9F855A" stroke-width="0.566929"/>
<path fill-rule="evenodd" clip-rule="evenodd" d="M985 1479L994 1474L996 1476L985 1483V1479Z" fill="#9F855A" stroke="#9F855A" stroke-width="0.566929"/>
<path fill-rule="evenodd" clip-rule="evenodd" d="M985 1479L994 1474L985 1471V1479Z" fill="#E0BD81" stroke="#E0BD81" stroke-width="0.566929"/>
<path fill-rule="evenodd" clip-rule="evenodd" d="M985 1480V1470V1480ZM942 1401L985 1419V1517L980 1515V1479L947 1465L946 1500L942 1498V1400V1401Z" fill="#BD9F6A" stroke="#BD9E63" stroke-width="0.566929"/>
<path fill-rule="evenodd" clip-rule="evenodd" d="M1012 1482L1018 1485L1017 1529L1010 1527L1012 1482Z" fill="#BD9F6A" stroke="#BD9E63" stroke-width="0.566929"/>
<path fill-rule="evenodd" clip-rule="evenodd" d="M1018 1485L1024 1481L1023 1525L1017 1529L1018 1485Z" fill="#9F855A" stroke="#9C8252" stroke-width="0.566929"/>
<path fill-rule="evenodd" clip-rule="evenodd" d="M846 1459L850 1456V1422L846 1425V1459Z" fill="#9F855A" stroke="#9F855A" stroke-width="0.566929"/>
<path fill-rule="evenodd" clip-rule="evenodd" d="M884 1475L888 1473V1438L884 1441V1475Z" fill="#9F855A" stroke="#9F855A" stroke-width="0.566929"/>
<path fill-rule="evenodd" clip-rule="evenodd" d="M884 1438L893 1433L896 1435L884 1443V1438Z" fill="#9F855A" stroke="#9F855A" stroke-width="0.566929"/>
<path fill-rule="evenodd" clip-rule="evenodd" d="M884 1438L893 1433L884 1430V1438Z" fill="#E0BD81" stroke="#E0BD81" stroke-width="0.566929"/>
<path fill-rule="evenodd" clip-rule="evenodd" d="M884 1439V1429V1439ZM841 1360L884 1378V1476L879 1474V1438L846 1424L845 1459L841 1457V1359V1360Z" fill="#BD9F6A" stroke="#BD9E63" stroke-width="0.566929"/>
<path fill-rule="evenodd" clip-rule="evenodd" d="M405 1251L484 1199L690 1283L611 1336L405 1251Z" fill="#E0BD81" stroke="#E0BD81" stroke-width="0.566929"/>
<path fill-rule="evenodd" clip-rule="evenodd" d="M405 1251L611 1336V1346L405 1261V1251Z" fill="#BD9F6A" stroke="#BD9E63" stroke-width="0.566929"/>
<path fill-rule="evenodd" clip-rule="evenodd" d="M405 1261L412 1264L410 1308L404 1305L405 1261Z" fill="#BD9F6A" stroke="#BD9E63" stroke-width="0.566929"/>
<path fill-rule="evenodd" clip-rule="evenodd" d="M412 1264L417 1267L416 1303L410 1308L412 1264Z" fill="#9F855A" stroke="#9C8252" stroke-width="0.566929"/>
<path fill-rule="evenodd" clip-rule="evenodd" d="M611 1336L690 1283V1293L611 1346V1336Z" fill="#9F855A" stroke="#9C8252" stroke-width="0.566929"/>
<path fill-rule="evenodd" clip-rule="evenodd" d="M678 1302L684 1298V1342L677 1339L678 1302Z" fill="#BD9F6A" stroke="#BD9E63" stroke-width="0.566929"/>
<path fill-rule="evenodd" clip-rule="evenodd" d="M684 1297L690 1294L689 1337L684 1342V1297Z" fill="#9F855A" stroke="#9C8252" stroke-width="0.566929"/>
<path fill-rule="evenodd" clip-rule="evenodd" d="M627 1183L670 1201V1262L626 1244L627 1183Z" fill="#BD9F6A" stroke="#BD9E63" stroke-width="0.566929"/>
<path fill-rule="evenodd" clip-rule="evenodd" d="M626 1244L670 1262L659 1270L614 1252L626 1244Z" fill="#E0BD81" stroke="#DEBE7B" stroke-width="0.566929"/>
<path fill-rule="evenodd" clip-rule="evenodd" d="M670 1262L659 1270L670 1274V1262Z" fill="#9F855A" stroke="#9C8252" stroke-width="0.566929"/>
<path fill-rule="evenodd" clip-rule="evenodd" d="M529 1143L572 1161V1223L528 1205L529 1143Z" fill="#BD9F6A" stroke="#BD9E63" stroke-width="0.566929"/>
<path fill-rule="evenodd" clip-rule="evenodd" d="M528 1205L572 1223L561 1231L516 1212L528 1205Z" fill="#E0BD81" stroke="#DEBE7B" stroke-width="0.566929"/>
<path fill-rule="evenodd" clip-rule="evenodd" d="M572 1223L561 1231L572 1235V1223Z" fill="#9F855A" stroke="#9C8252" stroke-width="0.566929"/>
<path fill-rule="evenodd" clip-rule="evenodd" d="M540 1361L544 1359L545 1324L541 1327L540 1361Z" fill="#9F855A" stroke="#9F855A" stroke-width="0.566929"/>
<path fill-rule="evenodd" clip-rule="evenodd" d="M578 1377L582 1375L583 1340L579 1343L578 1377Z" fill="#9F855A" stroke="#9F855A" stroke-width="0.566929"/>
<path fill-rule="evenodd" clip-rule="evenodd" d="M579 1340L588 1335L590 1337L579 1345V1340Z" fill="#9F855A" stroke="#9F855A" stroke-width="0.566929"/>
<path fill-rule="evenodd" clip-rule="evenodd" d="M579 1340L588 1335L578 1333L579 1340Z" fill="#E0BD81" stroke="#E0BD81" stroke-width="0.566929"/>
<path fill-rule="evenodd" clip-rule="evenodd" d="M579 1341V1331V1341ZM536 1262L579 1280V1378L574 1376V1340L541 1326L540 1361L536 1359V1261V1262Z" fill="#BD9F6A" stroke="#BD9E63" stroke-width="0.566929"/>
<path fill-rule="evenodd" clip-rule="evenodd" d="M606 1344L612 1347L611 1391L604 1388L606 1344Z" fill="#BD9F6A" stroke="#BD9E63" stroke-width="0.566929"/>
<path fill-rule="evenodd" clip-rule="evenodd" d="M612 1346L618 1342L617 1386L611 1391L612 1346Z" fill="#9F855A" stroke="#9C8252" stroke-width="0.566929"/>
<path fill-rule="evenodd" clip-rule="evenodd" d="M440 1320L444 1318V1283L440 1286V1320Z" fill="#9F855A" stroke="#9F855A" stroke-width="0.566929"/>
<path fill-rule="evenodd" clip-rule="evenodd" d="M478 1337L482 1334V1299L478 1302V1337Z" fill="#9F855A" stroke="#9F855A" stroke-width="0.566929"/>
<path fill-rule="evenodd" clip-rule="evenodd" d="M478 1299L487 1294L490 1297L478 1304V1299Z" fill="#9F855A" stroke="#9F855A" stroke-width="0.566929"/>
<path fill-rule="evenodd" clip-rule="evenodd" d="M478 1299L487 1294L478 1292V1299Z" fill="#E0BD81" stroke="#E0BD81" stroke-width="0.566929"/>
<path fill-rule="evenodd" clip-rule="evenodd" d="M478 1300V1290V1300ZM435 1221L478 1239V1337L473 1335V1299L440 1285L439 1320L435 1318V1220V1221Z" fill="#BD9F6A" stroke="#BD9E63" stroke-width="0.566929"/>
<path fill-rule="evenodd" clip-rule="evenodd" d="M1212 1413L1291 1360L1498 1445L1418 1498L1212 1413Z" fill="#E0BD81" stroke="#E0BD81" stroke-width="0.566929"/>
<path fill-rule="evenodd" clip-rule="evenodd" d="M1212 1413L1418 1497L1419 1508L1212 1423V1413Z" fill="#BD9F6A" stroke="#BD9E63" stroke-width="0.566929"/>
<path fill-rule="evenodd" clip-rule="evenodd" d="M1212 1423L1219 1426L1218 1469L1211 1467L1212 1423Z" fill="#BD9F6A" stroke="#BD9E63" stroke-width="0.566929"/>
<path fill-rule="evenodd" clip-rule="evenodd" d="M1219 1426L1225 1428L1224 1465L1218 1470L1219 1426Z" fill="#9F855A" stroke="#9C8252" stroke-width="0.566929"/>
<path fill-rule="evenodd" clip-rule="evenodd" d="M1418 1497L1498 1445V1455L1418 1508V1497Z" fill="#9F855A" stroke="#9C8252" stroke-width="0.566929"/>
<path fill-rule="evenodd" clip-rule="evenodd" d="M1485 1463L1492 1460L1491 1504L1484 1501L1485 1463Z" fill="#BD9F6A" stroke="#BD9E63" stroke-width="0.566929"/>
<path fill-rule="evenodd" clip-rule="evenodd" d="M1491 1459L1498 1455L1496 1499L1491 1504V1459Z" fill="#9F855A" stroke="#9C8252" stroke-width="0.566929"/>
<path fill-rule="evenodd" clip-rule="evenodd" d="M1434 1345L1477 1363V1424L1433 1406L1434 1345Z" fill="#BD9F6A" stroke="#BD9E63" stroke-width="0.566929"/>
<path fill-rule="evenodd" clip-rule="evenodd" d="M1433 1406L1477 1424L1467 1432L1422 1414L1433 1406Z" fill="#E0BD81" stroke="#DEBE7B" stroke-width="0.566929"/>
<path fill-rule="evenodd" clip-rule="evenodd" d="M1477 1424L1467 1432L1477 1436V1424Z" fill="#9F855A" stroke="#9C8252" stroke-width="0.566929"/>
<path fill-rule="evenodd" clip-rule="evenodd" d="M1336 1305L1379 1323V1385L1335 1366L1336 1305Z" fill="#BD9F6A" stroke="#BD9E63" stroke-width="0.566929"/>
<path fill-rule="evenodd" clip-rule="evenodd" d="M1335 1366L1379 1385L1369 1393L1324 1374L1335 1366Z" fill="#E0BD81" stroke="#DEBE7B" stroke-width="0.566929"/>
<path fill-rule="evenodd" clip-rule="evenodd" d="M1379 1385L1369 1393L1379 1396V1385Z" fill="#9F855A" stroke="#9C8252" stroke-width="0.566929"/>
<path fill-rule="evenodd" clip-rule="evenodd" d="M1348 1523L1352 1520V1486L1348 1488V1523Z" fill="#9F855A" stroke="#9F855A" stroke-width="0.566929"/>
<path fill-rule="evenodd" clip-rule="evenodd" d="M1386 1539L1390 1537V1502L1386 1505V1539Z" fill="#9F855A" stroke="#9F855A" stroke-width="0.566929"/>
<path fill-rule="evenodd" clip-rule="evenodd" d="M1386 1502L1395 1497L1397 1499L1386 1506V1502Z" fill="#9F855A" stroke="#9F855A" stroke-width="0.566929"/>
<path fill-rule="evenodd" clip-rule="evenodd" d="M1386 1502L1395 1497L1386 1494V1502Z" fill="#E0BD81" stroke="#E0BD81" stroke-width="0.566929"/>
<path fill-rule="evenodd" clip-rule="evenodd" d="M1386 1503V1493V1503ZM1343 1424L1386 1442V1540L1381 1538V1502L1348 1488L1347 1523L1343 1521V1423V1424Z" fill="#BD9F6A" stroke="#BD9E63" stroke-width="0.566929"/>
<path fill-rule="evenodd" clip-rule="evenodd" d="M1413 1505L1419 1509V1553L1411 1550L1413 1505Z" fill="#BD9F6A" stroke="#BD9E63" stroke-width="0.566929"/>
<path fill-rule="evenodd" clip-rule="evenodd" d="M1419 1508L1425 1504L1424 1548L1419 1552V1508Z" fill="#9F855A" stroke="#9C8252" stroke-width="0.566929"/>
<path fill-rule="evenodd" clip-rule="evenodd" d="M1247 1482L1251 1479L1252 1445L1247 1448V1482Z" fill="#9F855A" stroke="#9F855A" stroke-width="0.566929"/>
<path fill-rule="evenodd" clip-rule="evenodd" d="M1285 1498L1289 1496L1290 1461L1285 1464V1498Z" fill="#9F855A" stroke="#9F855A" stroke-width="0.566929"/>
<path fill-rule="evenodd" clip-rule="evenodd" d="M1285 1461L1294 1456L1297 1458L1285 1466V1461Z" fill="#9F855A" stroke="#9F855A" stroke-width="0.566929"/>
<path fill-rule="evenodd" clip-rule="evenodd" d="M1285 1461L1294 1456L1285 1453V1461Z" fill="#E0BD81" stroke="#E0BD81" stroke-width="0.566929"/>
<path fill-rule="evenodd" clip-rule="evenodd" d="M1285 1462V1452V1462ZM1242 1383L1285 1401V1499L1280 1497V1461L1247 1447L1246 1482L1242 1480V1382V1383Z" fill="#BD9F6A" stroke="#BD9E63" stroke-width="0.566929"/>
<path fill-rule="evenodd" clip-rule="evenodd" d="M1508 1243L1587 1190L1793 1275L1714 1328L1508 1243Z" fill="#E0BD81" stroke="#E0BD81" stroke-width="0.566929"/>
<path fill-rule="evenodd" clip-rule="evenodd" d="M1508 1243L1714 1327V1338L1508 1253V1243Z" fill="#BD9F6A" stroke="#BD9E63" stroke-width="0.566929"/>
<path fill-rule="evenodd" clip-rule="evenodd" d="M1508 1253L1515 1256L1513 1299L1507 1297L1508 1253Z" fill="#BD9F6A" stroke="#BD9E63" stroke-width="0.566929"/>
<path fill-rule="evenodd" clip-rule="evenodd" d="M1515 1256L1520 1258L1519 1295L1513 1300L1515 1256Z" fill="#9F855A" stroke="#9C8252" stroke-width="0.566929"/>
<path fill-rule="evenodd" clip-rule="evenodd" d="M1714 1327L1793 1275V1285L1714 1338V1327Z" fill="#9F855A" stroke="#9C8252" stroke-width="0.566929"/>
<path fill-rule="evenodd" clip-rule="evenodd" d="M1781 1293L1787 1290V1334L1780 1331L1781 1293Z" fill="#BD9F6A" stroke="#BD9E63" stroke-width="0.566929"/>
<path fill-rule="evenodd" clip-rule="evenodd" d="M1787 1289L1793 1285L1792 1329L1787 1334V1289Z" fill="#9F855A" stroke="#9C8252" stroke-width="0.566929"/>
<path fill-rule="evenodd" clip-rule="evenodd" d="M1730 1175L1773 1193V1254L1729 1236L1730 1175Z" fill="#BD9F6A" stroke="#BD9E63" stroke-width="0.566929"/>
<path fill-rule="evenodd" clip-rule="evenodd" d="M1729 1236L1773 1254L1762 1262L1717 1244L1729 1236Z" fill="#E0BD81" stroke="#DEBE7B" stroke-width="0.566929"/>
<path fill-rule="evenodd" clip-rule="evenodd" d="M1773 1254L1762 1262L1773 1266V1254Z" fill="#9F855A" stroke="#9C8252" stroke-width="0.566929"/>
<path fill-rule="evenodd" clip-rule="evenodd" d="M1632 1135L1675 1153V1215L1631 1196L1632 1135Z" fill="#BD9F6A" stroke="#BD9E63" stroke-width="0.566929"/>
<path fill-rule="evenodd" clip-rule="evenodd" d="M1631 1196L1675 1215L1664 1223L1619 1204L1631 1196Z" fill="#E0BD81" stroke="#DEBE7B" stroke-width="0.566929"/>
<path fill-rule="evenodd" clip-rule="evenodd" d="M1675 1215L1664 1223L1675 1227V1215Z" fill="#9F855A" stroke="#9C8252" stroke-width="0.566929"/>
<path fill-rule="evenodd" clip-rule="evenodd" d="M1643 1353L1647 1350L1648 1316L1643 1319V1353Z" fill="#9F855A" stroke="#9F855A" stroke-width="0.566929"/>
<path fill-rule="evenodd" clip-rule="evenodd" d="M1681 1369L1685 1367L1686 1332L1681 1335V1369Z" fill="#9F855A" stroke="#9F855A" stroke-width="0.566929"/>
<path fill-rule="evenodd" clip-rule="evenodd" d="M1681 1332L1691 1327L1693 1329L1681 1337V1332Z" fill="#9F855A" stroke="#9F855A" stroke-width="0.566929"/>
<path fill-rule="evenodd" clip-rule="evenodd" d="M1681 1332L1691 1327L1681 1324V1332Z" fill="#E0BD81" stroke="#E0BD81" stroke-width="0.566929"/>
<path fill-rule="evenodd" clip-rule="evenodd" d="M1682 1333V1323V1333ZM1639 1254L1682 1272V1370L1677 1368V1332L1644 1318L1643 1353L1639 1351V1253V1254Z" fill="#BD9F6A" stroke="#BD9E63" stroke-width="0.566929"/>
<path fill-rule="evenodd" clip-rule="evenodd" d="M1709 1336L1715 1339L1714 1383L1707 1380L1709 1336Z" fill="#BD9F6A" stroke="#BD9E63" stroke-width="0.566929"/>
<path fill-rule="evenodd" clip-rule="evenodd" d="M1715 1338L1721 1334L1720 1378L1714 1382L1715 1338Z" fill="#9F855A" stroke="#9C8252" stroke-width="0.566929"/>
<path fill-rule="evenodd" clip-rule="evenodd" d="M1543 1312L1547 1310V1275L1543 1278V1312Z" fill="#9F855A" stroke="#9F855A" stroke-width="0.566929"/>
<path fill-rule="evenodd" clip-rule="evenodd" d="M1581 1328L1585 1326V1291L1581 1294V1328Z" fill="#9F855A" stroke="#9F855A" stroke-width="0.566929"/>
<path fill-rule="evenodd" clip-rule="evenodd" d="M1581 1291L1590 1286L1593 1288L1581 1296V1291Z" fill="#9F855A" stroke="#9F855A" stroke-width="0.566929"/>
<path fill-rule="evenodd" clip-rule="evenodd" d="M1581 1291L1590 1286L1581 1284V1291Z" fill="#E0BD81" stroke="#E0BD81" stroke-width="0.566929"/>
<path fill-rule="evenodd" clip-rule="evenodd" d="M1581 1292V1282V1292ZM1538 1213L1581 1231V1329L1576 1327V1291L1543 1277L1542 1312L1538 1310V1212V1213Z" fill="#BD9F6A" stroke="#BD9E63" stroke-width="0.566929"/>
<path fill-rule="evenodd" clip-rule="evenodd" d="M1228 751L1308 699L1514 783L1435 837L1228 751Z" fill="#E0BD81" stroke="#E0BD81" stroke-width="0.566929"/>
<path fill-rule="evenodd" clip-rule="evenodd" d="M1229 751L1435 836V846L1228 762L1229 751Z" fill="#BD9F6A" stroke="#BD9E63" stroke-width="0.566929"/>
<path fill-rule="evenodd" clip-rule="evenodd" d="M1228 762L1235 764L1234 808L1228 805V762Z" fill="#BD9F6A" stroke="#BD9E63" stroke-width="0.566929"/>
<path fill-rule="evenodd" clip-rule="evenodd" d="M1235 764L1241 767L1240 803L1234 808L1235 764Z" fill="#9F855A" stroke="#9C8252" stroke-width="0.566929"/>
<path fill-rule="evenodd" clip-rule="evenodd" d="M1435 836L1514 783V793L1435 847V836Z" fill="#9F855A" stroke="#9C8252" stroke-width="0.566929"/>
<path fill-rule="evenodd" clip-rule="evenodd" d="M1501 802L1508 798L1507 842L1500 839L1501 802Z" fill="#BD9F6A" stroke="#BD9E63" stroke-width="0.566929"/>
<path fill-rule="evenodd" clip-rule="evenodd" d="M1508 798L1514 794L1513 838L1507 842L1508 798Z" fill="#9F855A" stroke="#9C8252" stroke-width="0.566929"/>
<path fill-rule="evenodd" clip-rule="evenodd" d="M1450 683L1494 701L1493 763L1450 745V683Z" fill="#BD9F6A" stroke="#BD9E63" stroke-width="0.566929"/>
<path fill-rule="evenodd" clip-rule="evenodd" d="M1450 745L1493 763L1483 771L1438 752L1450 745Z" fill="#E0BD81" stroke="#DEBE7B" stroke-width="0.566929"/>
<path fill-rule="evenodd" clip-rule="evenodd" d="M1493 763L1483 771L1493 775V763Z" fill="#9F855A" stroke="#9C8252" stroke-width="0.566929"/>
<path fill-rule="evenodd" clip-rule="evenodd" d="M1352 644L1395 662V723L1352 705V644Z" fill="#BD9F6A" stroke="#BD9E63" stroke-width="0.566929"/>
<path fill-rule="evenodd" clip-rule="evenodd" d="M1352 705L1395 723L1385 731L1340 713L1352 705Z" fill="#E0BD81" stroke="#DEBE7B" stroke-width="0.566929"/>
<path fill-rule="evenodd" clip-rule="evenodd" d="M1395 723L1385 731L1395 735V723Z" fill="#9F855A" stroke="#9C8252" stroke-width="0.566929"/>
<path fill-rule="evenodd" clip-rule="evenodd" d="M1364 861L1368 859L1369 824L1364 827V861Z" fill="#9F855A" stroke="#9F855A" stroke-width="0.566929"/>
<path fill-rule="evenodd" clip-rule="evenodd" d="M1402 878L1406 875L1407 840L1402 843V878Z" fill="#9F855A" stroke="#9F855A" stroke-width="0.566929"/>
<path fill-rule="evenodd" clip-rule="evenodd" d="M1402 840L1412 835L1414 838L1402 845V840Z" fill="#9F855A" stroke="#9F855A" stroke-width="0.566929"/>
<path fill-rule="evenodd" clip-rule="evenodd" d="M1402 840L1412 835L1402 833V840Z" fill="#E0BD81" stroke="#E0BD81" stroke-width="0.566929"/>
<path fill-rule="evenodd" clip-rule="evenodd" d="M1402 841V831V841ZM1359 762L1402 780V878L1397 876V840L1364 826L1363 861L1359 859V761V762Z" fill="#BD9F6A" stroke="#BD9E63" stroke-width="0.566929"/>
<path fill-rule="evenodd" clip-rule="evenodd" d="M1429 844L1436 847L1435 891L1428 888L1429 844Z" fill="#BD9F6A" stroke="#BD9E63" stroke-width="0.566929"/>
<path fill-rule="evenodd" clip-rule="evenodd" d="M1435 846L1442 843L1440 886L1435 891V846Z" fill="#9F855A" stroke="#9C8252" stroke-width="0.566929"/>
<path fill-rule="evenodd" clip-rule="evenodd" d="M1264 821L1268 818V783L1264 786V821Z" fill="#9F855A" stroke="#9F855A" stroke-width="0.566929"/>
<path fill-rule="evenodd" clip-rule="evenodd" d="M1302 837L1306 834V800L1302 802V837Z" fill="#9F855A" stroke="#9F855A" stroke-width="0.566929"/>
<path fill-rule="evenodd" clip-rule="evenodd" d="M1302 799L1311 794L1313 797L1302 804V799Z" fill="#9F855A" stroke="#9F855A" stroke-width="0.566929"/>
<path fill-rule="evenodd" clip-rule="evenodd" d="M1302 799L1311 794L1302 792V799Z" fill="#E0BD81" stroke="#E0BD81" stroke-width="0.566929"/>
<path fill-rule="evenodd" clip-rule="evenodd" d="M1302 801V791V801ZM1259 722L1302 740V838L1297 836V800L1264 786L1263 821L1259 819V721V722Z" fill="#BD9F6A" stroke="#BD9E63" stroke-width="0.566929"/>
<path fill-rule="evenodd" clip-rule="evenodd" d="M802 781L881 729L1087 813L1008 866L802 781Z" fill="#E0BD81" stroke="#E0BD81" stroke-width="0.566929"/>
<path fill-rule="evenodd" clip-rule="evenodd" d="M802 781L1008 866V876L802 791V781Z" fill="#BD9F6A" stroke="#BD9E63" stroke-width="0.566929"/>
<path fill-rule="evenodd" clip-rule="evenodd" d="M802 791L809 794L807 838L801 835L802 791Z" fill="#BD9F6A" stroke="#BD9E63" stroke-width="0.566929"/>
<path fill-rule="evenodd" clip-rule="evenodd" d="M809 794L814 797L813 833L807 838L809 794Z" fill="#9F855A" stroke="#9C8252" stroke-width="0.566929"/>
<path fill-rule="evenodd" clip-rule="evenodd" d="M1008 866L1087 813V823L1008 876V866Z" fill="#9F855A" stroke="#9C8252" stroke-width="0.566929"/>
<path fill-rule="evenodd" clip-rule="evenodd" d="M1075 832L1081 828V872L1074 869L1075 832Z" fill="#BD9F6A" stroke="#BD9E63" stroke-width="0.566929"/>
<path fill-rule="evenodd" clip-rule="evenodd" d="M1081 827L1087 824L1086 867L1081 872V827Z" fill="#9F855A" stroke="#9C8252" stroke-width="0.566929"/>
<path fill-rule="evenodd" clip-rule="evenodd" d="M1024 713L1067 731V792L1023 774L1024 713Z" fill="#BD9F6A" stroke="#BD9E63" stroke-width="0.566929"/>
<path fill-rule="evenodd" clip-rule="evenodd" d="M1023 774L1067 792L1056 800L1011 782L1023 774Z" fill="#E0BD81" stroke="#DEBE7B" stroke-width="0.566929"/>
<path fill-rule="evenodd" clip-rule="evenodd" d="M1067 792L1056 800L1067 804V792Z" fill="#9F855A" stroke="#9C8252" stroke-width="0.566929"/>
<path fill-rule="evenodd" clip-rule="evenodd" d="M926 673L969 691V753L925 735L926 673Z" fill="#BD9F6A" stroke="#BD9E63" stroke-width="0.566929"/>
<path fill-rule="evenodd" clip-rule="evenodd" d="M925 735L969 753L958 761L913 742L925 735Z" fill="#E0BD81" stroke="#DEBE7B" stroke-width="0.566929"/>
<path fill-rule="evenodd" clip-rule="evenodd" d="M969 753L958 761L969 765V753Z" fill="#9F855A" stroke="#9C8252" stroke-width="0.566929"/>
<path fill-rule="evenodd" clip-rule="evenodd" d="M937 891L941 889L942 854L938 857L937 891Z" fill="#9F855A" stroke="#9F855A" stroke-width="0.566929"/>
<path fill-rule="evenodd" clip-rule="evenodd" d="M975 907L979 905L980 870L976 873L975 907Z" fill="#9F855A" stroke="#9F855A" stroke-width="0.566929"/>
<path fill-rule="evenodd" clip-rule="evenodd" d="M976 870L985 865L987 867L976 875V870Z" fill="#9F855A" stroke="#9F855A" stroke-width="0.566929"/>
<path fill-rule="evenodd" clip-rule="evenodd" d="M976 870L985 865L975 863L976 870Z" fill="#E0BD81" stroke="#E0BD81" stroke-width="0.566929"/>
<path fill-rule="evenodd" clip-rule="evenodd" d="M976 871V861V871ZM933 792L976 810V908L971 906V870L938 856L937 891L933 889V791V792Z" fill="#BD9F6A" stroke="#BD9E63" stroke-width="0.566929"/>
<path fill-rule="evenodd" clip-rule="evenodd" d="M1003 874L1009 877L1008 921L1001 918L1003 874Z" fill="#BD9F6A" stroke="#BD9E63" stroke-width="0.566929"/>
<path fill-rule="evenodd" clip-rule="evenodd" d="M1009 876L1015 872L1014 916L1008 921L1009 876Z" fill="#9F855A" stroke="#9C8252" stroke-width="0.566929"/>
<path fill-rule="evenodd" clip-rule="evenodd" d="M837 850L841 848V813L837 816V850Z" fill="#9F855A" stroke="#9F855A" stroke-width="0.566929"/>
<path fill-rule="evenodd" clip-rule="evenodd" d="M875 867L879 864V829L875 832V867Z" fill="#9F855A" stroke="#9F855A" stroke-width="0.566929"/>
<path fill-rule="evenodd" clip-rule="evenodd" d="M875 829L884 824L887 827L875 834V829Z" fill="#9F855A" stroke="#9F855A" stroke-width="0.566929"/>
<path fill-rule="evenodd" clip-rule="evenodd" d="M875 829L884 824L875 822V829Z" fill="#E0BD81" stroke="#E0BD81" stroke-width="0.566929"/>
<path fill-rule="evenodd" clip-rule="evenodd" d="M875 830V820V830ZM832 751L875 769V867L870 865V829L837 815L836 850L832 848V750V751Z" fill="#BD9F6A" stroke="#BD9E63" stroke-width="0.566929"/>
<path fill-rule="evenodd" clip-rule="evenodd" d="M265 1457L412 1518L413 1085L915 1293L914 1726L1169 1831L1168 1008L264 633L265 1457Z" fill="#FFFBE4" stroke="#FFFBE4" stroke-width="0.566929"/>
<path fill-rule="evenodd" clip-rule="evenodd" d="M412 1518L451 1493L452 1101L413 1085L412 1518Z" fill="#D6BE94" stroke="#D6BE94" stroke-width="0.566929"/>
<path fill-rule="evenodd" clip-rule="evenodd" d="M1169 1832L1429 1732V1303L1835 1148L1836 1577L1966 1527V714L1169 1008V1832Z" fill="#F8F4DD" stroke="#F8F4DD" stroke-width="0.566929"/>
<path fill-rule="evenodd" clip-rule="evenodd" d="M1805 1159L1835 1148L1836 1577L1807 1555L1805 1159Z" fill="#D6BE94" stroke="#D6BE94" stroke-width="0.566929"/>
<path fill-rule="evenodd" clip-rule="evenodd" d="M1304 1029L1395 993L1394 1130L1303 1166L1304 1029Z" fill="#848688" stroke="#848688" stroke-width="0.566929"/>
<path fill-rule="evenodd" clip-rule="evenodd" d="M1550 938L1641 902V1039L1550 1075V938Z" fill="#848688" stroke="#848688" stroke-width="0.566929"/>
<path fill-rule="evenodd" clip-rule="evenodd" d="M1788 847L1879 811V948L1787 984L1788 847Z" fill="#848688" stroke="#848688" stroke-width="0.566929"/>
<path fill-rule="evenodd" clip-rule="evenodd" d="M902 972L993 1008L995 1146L904 1110L902 972Z" fill="#E6E7E8" stroke="#BDBFC1" stroke-width="0.566929"/>
<path fill-rule="evenodd" clip-rule="evenodd" d="M643 861L734 898L735 1035L644 999L643 861Z" fill="#E6E7E8" stroke="#BDBFC1" stroke-width="0.566929"/>
<path fill-rule="evenodd" clip-rule="evenodd" d="M374 752L465 788L467 926L376 889L374 752Z" fill="#E6E7E8" stroke="#BDBFC1" stroke-width="0.566929"/>
<path fill-rule="evenodd" clip-rule="evenodd" d="M639 615L730 596V715L639 733V615Z" fill="#848688" stroke="#848688" stroke-width="0.566929"/>
<path fill-rule="evenodd" clip-rule="evenodd" d="M931 542L1023 524V642L931 660V542Z" fill="#848688" stroke="#848688" stroke-width="0.566929"/>
<path fill-rule="evenodd" clip-rule="evenodd" d="M274 896C211 931 103 967 58 1150L48 1146C89 959 205 922 266 887L275 896H274Z" fill="#373435" stroke="#373435" stroke-width="0.566929"/>
<path fill-rule="evenodd" clip-rule="evenodd" d="M447 970C384 1005 276 1041 231 1224L221 1220C262 1033 378 996 439 961L448 970H447Z" fill="#373435" stroke="#373435" stroke-width="0.566929"/>
<path fill-rule="evenodd" clip-rule="evenodd" d="M639 1052C576 1087 468 1123 423 1306L413 1302C454 1115 570 1078 631 1043L640 1052H639Z" fill="#373435" stroke="#373435" stroke-width="0.566929"/>
<path fill-rule="evenodd" clip-rule="evenodd" d="M803 1121C740 1156 632 1192 587 1375L577 1371C618 1184 734 1147 795 1112L804 1121H803Z" fill="#373435" stroke="#373435" stroke-width="0.566929"/>
<path fill-rule="evenodd" clip-rule="evenodd" d="M977 1195C914 1230 806 1266 761 1449L751 1445C792 1258 908 1221 969 1186L978 1195H977Z" fill="#373435" stroke="#373435" stroke-width="0.566929"/>
<path fill-rule="evenodd" clip-rule="evenodd" d="M1169 1277C1106 1312 999 1345 953 1528L942 1524C983 1337 1099 1303 1159 1268L1168 1277H1169Z" fill="#373435" stroke="#373435" stroke-width="0.566929"/>
<path fill-rule="evenodd" clip-rule="evenodd" d="M1169 1262C1322 1331 1370 1437 1392 1526L1382 1529C1359 1454 1326 1342 1154 1266L1169 1262Z" fill="#373435" stroke="#373435" stroke-width="0.566929"/>
<path fill-rule="evenodd" clip-rule="evenodd" d="M1366 1189C1519 1258 1572 1366 1594 1456L1584 1459C1561 1384 1523 1271 1351 1195L1366 1189Z" fill="#373435" stroke="#373435" stroke-width="0.566929"/>
<path fill-rule="evenodd" clip-rule="evenodd" d="M1549 1120C1702 1189 1755 1297 1777 1387L1767 1390C1744 1315 1706 1202 1534 1126L1549 1120Z" fill="#373435" stroke="#373435" stroke-width="0.566929"/>
<path fill-rule="evenodd" clip-rule="evenodd" d="M1706 1060C1859 1129 1912 1237 1934 1327L1924 1330C1901 1255 1863 1142 1691 1066L1706 1060Z" fill="#373435" stroke="#373435" stroke-width="0.566929"/>
<path fill-rule="evenodd" clip-rule="evenodd" d="M1860 1002C2013 1071 2065 1179 2087 1268L2077 1271C2054 1196 2016 1084 1845 1007L1860 1001V1002Z" fill="#373435" stroke="#373435" stroke-width="0.566929"/>
<path fill-rule="evenodd" clip-rule="evenodd" d="M1966 961C2119 1030 2172 1138 2194 1228L2184 1231C2161 1156 2123 1043 1951 967L1966 961Z" fill="#373435" stroke="#373435" stroke-width="0.566929"/>
<path fill-rule="evenodd" clip-rule="evenodd" d="M1162 1263L1176 1265V1606H1161L1162 1263Z" fill="#373435" stroke="#373435" stroke-width="0.566929"/>
<path fill-rule="evenodd" clip-rule="evenodd" d="M47 1144L1169 1606V1617L47 1156V1144Z" fill="#373435" stroke="#373435" stroke-width="0.566929"/>
<path fill-rule="evenodd" clip-rule="evenodd" d="M1169 1617L2196 1235L2194 1227L1169 1606V1617Z" fill="#373435" stroke="#373435" stroke-width="0.566929"/>
<path fill-rule="evenodd" clip-rule="evenodd" d="M264 887L1169 1264V1276L264 901V887Z" fill="#373435" stroke="#373435" stroke-width="0.566929"/>
<path fill-rule="evenodd" clip-rule="evenodd" d="M1168 1264L1966 961L1963 973L1169 1276L1168 1264Z" fill="#373435" stroke="#373435" stroke-width="0.566929"/>
<path fill-rule="evenodd" clip-rule="evenodd" d="M264 887L440 961C326 1010 246 1096 221 1217L47 1145C89 970 184 930 265 888L264 887Z" fill="#36CF1C" fill-opacity="0.5" stroke="#36CF1C" stroke-opacity="0.5" stroke-width="0.566929"/>
<path fill-rule="evenodd" clip-rule="evenodd" d="M441 960L635 1041C521 1090 435 1175 414 1295L221 1216C264 1045 360 999 440 960H441Z" fill="#36CF1C" fill-opacity="0.5" stroke="#36CF1C" stroke-opacity="0.5" stroke-width="0.566929"/>
<path fill-rule="evenodd" clip-rule="evenodd" d="M633 1041L800 1110C686 1159 600 1243 579 1363L414 1295C456 1120 552 1083 633 1040V1041Z" fill="#36CF1C" fill-opacity="0.5" stroke="#36CF1C" stroke-opacity="0.5" stroke-width="0.566929"/>
<path fill-rule="evenodd" clip-rule="evenodd" d="M798 1109L977 1183C863 1232 774 1314 753 1434L578 1362C620 1187 717 1151 798 1108V1109Z" fill="#36CF1C" fill-opacity="0.5" stroke="#36CF1C" stroke-opacity="0.5" stroke-width="0.566929"/>
<path fill-rule="evenodd" clip-rule="evenodd" d="M971 1182L1169 1264C1055 1313 966 1394 945 1514L752 1435C794 1260 890 1224 971 1182Z" fill="#36CF1C" fill-opacity="0.5" stroke="#36CF1C" stroke-opacity="0.5" stroke-width="0.566929"/>
<path fill-rule="evenodd" clip-rule="evenodd" d="M1163 1261L1169 1262C1168 1316 1166 1485 1169 1606L945 1514C987 1339 1090 1306 1163 1262V1261Z" fill="#36CF1C" fill-opacity="0.5" stroke="#36CF1C" stroke-opacity="0.5" stroke-width="0.566929"/>
<path fill-rule="evenodd" clip-rule="evenodd" d="M1169 1262C1223 1283 1358 1355 1391 1524L1169 1606C1169 1483 1169 1376 1169 1262Z" fill="#36CF1C" fill-opacity="0.5" stroke="#36CF1C" stroke-opacity="0.5" stroke-width="0.566929"/>
<path fill-rule="evenodd" clip-rule="evenodd" d="M1169 1262L1366 1189C1527 1265 1566 1364 1593 1449L1392 1523C1378 1413 1260 1287 1170 1262H1169Z" fill="#36CF1C" fill-opacity="0.5" stroke="#36CF1C" stroke-opacity="0.5" stroke-width="0.566929"/>
<path fill-rule="evenodd" clip-rule="evenodd" d="M1365 1189L1550 1118C1711 1194 1750 1295 1776 1380L1593 1448C1566 1316 1441 1214 1365 1189Z" fill="#36CF1C" fill-opacity="0.5" stroke="#36CF1C" stroke-opacity="0.5" stroke-width="0.566929"/>
<path fill-rule="evenodd" clip-rule="evenodd" d="M1550 1119L1706 1060C1867 1136 1907 1239 1933 1323L1776 1381C1729 1205 1602 1144 1550 1118V1119Z" fill="#36CF1C" fill-opacity="0.5" stroke="#36CF1C" stroke-opacity="0.5" stroke-width="0.566929"/>
<path fill-rule="evenodd" clip-rule="evenodd" d="M1705 1059L1859 1001C2020 1077 2060 1181 2086 1266L1932 1323C1888 1146 1756 1084 1704 1059H1705Z" fill="#36CF1C" fill-opacity="0.5" stroke="#36CF1C" stroke-opacity="0.5" stroke-width="0.566929"/>
<path fill-rule="evenodd" clip-rule="evenodd" d="M1860 1002L1966 962C2127 1038 2168 1142 2194 1227L2087 1267C2043 1090 1912 1027 1860 1002Z" fill="#36CF1C" fill-opacity="0.5" stroke="#36CF1C" stroke-opacity="0.5" stroke-width="0.566929"/>
<path fill-rule="evenodd" clip-rule="evenodd" d="M660 529C1007 364 1242 342 1622 572C1625 574 1609 578 1609 578C1269 381 1048 378 691 532L659 529H660Z" fill="#363534" stroke="#373435" stroke-width="0.566929"/>
<path fill-rule="evenodd" clip-rule="evenodd" d="M264 623L1169 998V1008L264 633V623Z" fill="#363534" stroke="#373435" stroke-width="0.566929"/>
<path fill-rule="evenodd" clip-rule="evenodd" d="M1169 998L1966 704V714L1168 1008L1169 998Z" fill="#363534" stroke="#373435" stroke-width="0.566929"/>
<path fill-rule="evenodd" clip-rule="evenodd" d="M264 623C925 192 1464 249 1966 704L1953 709C1527 375 1090 146 278 629L264 623Z" fill="#363534" stroke="#373435" stroke-width="0.566929"/>
<path fill-rule="evenodd" clip-rule="evenodd" d="M499 730C988 471 1236 416 1767 787L1745 795C1245 471 1059 474 520 739L499 730Z" fill="#363534" stroke="#373435" stroke-width="0.566929"/>
<path fill-rule="evenodd" clip-rule="evenodd" d="M781 847C1078 662 1210 630 1538 871L1514 880C1202 641 1031 704 812 859L781 846V847Z" fill="#363534" stroke="#373435" stroke-width="0.566929"/>
<path fill-rule="evenodd" clip-rule="evenodd" d="M1181 340C1188 263 1185 815 1179 994L1169 998L1162 995C1162 849 1164 410 1170 341C1170 336 1175 339 1178 340C1179 340 1181 340 1181 340C1181 342 1182 340 1181 340Z" fill="#363534"/>
<path d="M1181 340C1188 263 1185 815 1179 994L1169 998L1162 995C1162 849 1164 410 1170 341C1170 336 1175 339 1178 340C1179 340 1181 340 1181 340ZM1181 340C1182 340 1181 342 1181 340Z" stroke="#373435" stroke-width="0.566929"/>
<path fill-rule="evenodd" clip-rule="evenodd" d="M1184 404L1967 705V715L1184 414V404Z" fill="#363534" stroke="#373435" stroke-width="0.566929"/>
<path fill-rule="evenodd" clip-rule="evenodd" d="M269 628L1166 404V414L268 638L269 628Z" fill="#363534" stroke="#373435" stroke-width="0.566929"/>
<path fill-rule="evenodd" clip-rule="evenodd" d="M264 623C943 180 1470 259 1966 704L1758 780C1417 553 1116 374 509 724L264 622V623Z" fill="#36CF1C" fill-opacity="0.5" stroke="#8EDB82" stroke-width="0.566929"/>
<path fill-rule="evenodd" clip-rule="evenodd" d="M510 725C958 488 1228 411 1758 781L1529 865C1167 584 1000 721 791 841L510 725Z" fill="#36CF1C" fill-opacity="0.5" stroke="#8EDB82" stroke-width="0.566929"/>
<path fill-rule="evenodd" clip-rule="evenodd" d="M790 841C1055 673 1207 625 1528 865L1168 998L790 841Z" fill="#36CF1C" fill-opacity="0.5" stroke="#8EDB82" stroke-width="0.566929"/>
</svg>
