<svg width="361" height="269" viewBox="0 0 361 269" fill="none" xmlns="http://www.w3.org/2000/svg">
<path fill-rule="evenodd" clip-rule="evenodd" d="M14.4592 87.1431L176.357 154.268V259.878L14.4592 192.753V87.1431Z" fill="#FFFBE4" stroke="#FFFBE4" stroke-width="0.566929"/>
<path fill-rule="evenodd" clip-rule="evenodd" d="M176.357 154.268L354.911 86.248V191.858L176.357 259.878V154.268Z" fill="#F8F4DD" stroke="#F8F4DD" stroke-width="0.566929"/>
<path fill-rule="evenodd" clip-rule="evenodd" d="M191.759 185.056L227.578 172.526L227.936 208.147L191.938 221.751L191.759 185.056Z" fill="#4B4B4D" stroke="#4B4B4D" stroke-width="0.566929"/>
<path fill-rule="evenodd" clip-rule="evenodd" d="M254.441 161.07L290.259 148.54L290.617 184.34L254.62 197.944L254.441 161.07Z" fill="#4B4B4D" stroke="#4B4B4D" stroke-width="0.566929"/>
<path fill-rule="evenodd" clip-rule="evenodd" d="M311.929 139.232L347.747 126.702L348.106 162.502L312.108 176.106L311.929 139.232Z" fill="#4B4B4D" stroke="#4B4B4D" stroke-width="0.566929"/>
<path fill-rule="evenodd" clip-rule="evenodd" d="M191.759 187.92L225.787 176.106L226.145 208.863L191.938 221.751L191.759 187.92Z" fill="#727376" stroke="#727376" stroke-width="0.566929"/>
<path fill-rule="evenodd" clip-rule="evenodd" d="M254.441 164.113L288.468 152.299L288.826 184.877L254.62 197.765L254.441 164.113Z" fill="#727376" stroke="#727376" stroke-width="0.566929"/>
<path fill-rule="evenodd" clip-rule="evenodd" d="M311.929 142.275L345.956 130.461L346.315 163.218L312.108 175.927L311.929 142.275Z" fill="#727376" stroke="#727376" stroke-width="0.566929"/>
<path fill-rule="evenodd" clip-rule="evenodd" d="M14.4592 87.143L192.834 18.049L354.732 86.248L176.357 154.268L14.4592 87.143Z" fill="#FFFEF4" stroke="white" stroke-width="0.566929"/>
<path fill-rule="evenodd" clip-rule="evenodd" d="M86.6328 62.62L137.853 83.563V99.673L86.2747 78.372L86.6328 62.62Z" fill="#FFFBE4" stroke="#FFFBE4" stroke-width="0.566929"/>
<path fill-rule="evenodd" clip-rule="evenodd" d="M137.853 83.5629L214.862 54.5649L215.041 69.7799L137.674 99.6729L137.853 83.5629Z" fill="#F8F4DD" stroke="#F8F4DD" stroke-width="0.566929"/>
<path fill-rule="evenodd" clip-rule="evenodd" d="M86.6328 62.62L164.358 33.98V73.539L137.853 83.563L86.6328 62.62Z" fill="#FFFDF2" stroke="#FFFDF2" stroke-width="0.566929"/>
<path fill-rule="evenodd" clip-rule="evenodd" d="M164.537 33.98L214.325 54.565L164.358 73.539L164.537 33.98Z" fill="#FEFEFE" stroke="#FEFEFE" stroke-width="0.566929"/>
<path fill-rule="evenodd" clip-rule="evenodd" d="M156.478 91.26L207.698 112.203V128.313L156.12 107.012L156.478 91.26Z" fill="#FFFBE4" stroke="#FFFBE4" stroke-width="0.566929"/>
<path fill-rule="evenodd" clip-rule="evenodd" d="M207.698 112.203L284.707 83.0259L284.887 98.2409L207.519 128.313L207.698 112.203Z" fill="#F8F4DD" stroke="#F8F4DD" stroke-width="0.566929"/>
<path fill-rule="evenodd" clip-rule="evenodd" d="M156.478 91.2599L234.204 62.4409V102.179L207.698 112.203L156.478 91.2599Z" fill="#FFFDF2" stroke="#FCFCFC" stroke-width="0.566929"/>
<path fill-rule="evenodd" clip-rule="evenodd" d="M234.383 62.62L284.17 83.205L234.204 102.179L234.383 62.62Z" fill="#FEFEFE" stroke="#FEFEFE" stroke-width="0.566929"/>
<path fill-rule="evenodd" clip-rule="evenodd" d="M14.4592 121.153L176.357 188.278V191.858L14.4592 124.733V121.153Z" fill="#BDBFC1" stroke="#BDBFC1" stroke-width="0.566929"/>
<path fill-rule="evenodd" clip-rule="evenodd" d="M91.8267 156.237L154.867 182.371L154.329 253.613L91.8267 227.658V156.237Z" fill="#BDBFC1" stroke="#BDBFC1" stroke-width="0.566929"/>
<path fill-rule="evenodd" clip-rule="evenodd" d="M95.4085 154.626L158.628 180.939L154.867 182.371L91.8267 156.237L95.4085 154.626Z" fill="#E6E7E8" stroke="#E6E7E8" stroke-width="0.566929"/>
<path fill-rule="evenodd" clip-rule="evenodd" d="M157.911 252.36L154.329 253.613L154.866 182.371L158.627 180.939L157.911 252.36Z" fill="#727376" stroke="#727376" stroke-width="0.566929"/>
<path fill-rule="evenodd" clip-rule="evenodd" d="M104.542 53.67L173.671 27.715L174.924 28.968L104.542 55.102V53.67Z" fill="#606062" stroke="#606062" stroke-width="0.566929"/>
<path fill-rule="evenodd" clip-rule="evenodd" d="M173.313 26.4619L103.288 53.1329L104.542 53.6699L174.745 26.9989L173.313 26.4619Z" fill="#848688" stroke="#848688" stroke-width="0.566929"/>
<path fill-rule="evenodd" clip-rule="evenodd" d="M173.492 27.536L227.756 49.553V51.343L173.671 29.326L173.492 27.536Z" fill="#606062" stroke="#A9ABAE" stroke-width="0.566929"/>
<path fill-rule="evenodd" clip-rule="evenodd" d="M176.178 25.5669L231.159 48.1209L227.756 49.5529L173.492 27.5359L176.178 25.5669Z" fill="#848688" stroke="#373435" stroke-width="0.566929"/>
<path fill-rule="evenodd" clip-rule="evenodd" d="M103.288 53.1329L157.553 76.2239V78.0139L103.288 54.9229V53.1329Z" fill="#606062" stroke="#A9ABAE" stroke-width="0.566929"/>
<path fill-rule="evenodd" clip-rule="evenodd" d="M106.154 52.2379L161.134 74.7919L157.553 76.2239L103.288 53.1329L106.154 52.2379Z" fill="#848688" stroke="#848688" stroke-width="0.566929"/>
<path fill-rule="evenodd" clip-rule="evenodd" d="M157.553 76.224L230.98 48.3L229.368 47.405L155.941 75.508L157.553 76.224Z" fill="#848688" stroke="#848688" stroke-width="0.566929"/>
<path fill-rule="evenodd" clip-rule="evenodd" d="M173.312 26.641C196.415 3.72897 230.98 27.536 227.577 49.553L225.965 48.837C225.965 27.894 198.385 6.59297 174.566 26.999L173.312 26.462V26.641Z" fill="#606062" stroke="#606062" stroke-width="0.566929"/>
<path fill-rule="evenodd" clip-rule="evenodd" d="M190.863 16.9749C215.936 11.6049 232.95 33.0849 231.159 48.2999L227.577 49.5529C230.801 36.6649 212.175 10.7099 185.491 18.9439L190.863 16.9749Z" fill="#848688" stroke="#848688" stroke-width="0.566929"/>
<path fill-rule="evenodd" clip-rule="evenodd" d="M157.015 33.085C180.118 10.1729 214.683 33.98 211.28 55.997L209.668 55.281C209.668 34.338 182.088 13.0369 158.269 33.443L157.015 32.906V33.085Z" fill="#606062" stroke="#606062" stroke-width="0.566929"/>
<path fill-rule="evenodd" clip-rule="evenodd" d="M174.746 23.2399C199.818 17.8699 216.832 39.35 215.041 54.565L211.459 55.818C214.683 42.93 196.057 16.9749 169.373 25.2089L174.746 23.2399Z" fill="#848688" stroke="#848688" stroke-width="0.566929"/>
<path fill-rule="evenodd" clip-rule="evenodd" d="M137.315 40.2449C160.418 17.3329 194.983 41.1399 191.58 63.1569L189.968 62.4409C189.968 41.4979 162.388 20.1969 138.569 40.6029L137.315 40.0659V40.2449Z" fill="#606062" stroke="#606062" stroke-width="0.566929"/>
<path fill-rule="evenodd" clip-rule="evenodd" d="M154.866 30.3999C179.939 25.0299 196.953 46.5099 195.162 61.7248L191.58 62.9779C194.804 50.0899 176.178 24.1349 149.494 32.3689L154.866 30.3999Z" fill="#848688" stroke="#848688" stroke-width="0.566929"/>
<path fill-rule="evenodd" clip-rule="evenodd" d="M119.585 47.047C142.688 24.135 177.252 47.942 173.85 69.959L172.238 69.243C172.238 48.3 144.658 26.999 120.839 47.405L119.585 46.868V47.047Z" fill="#606062" stroke="#606062" stroke-width="0.566929"/>
<path fill-rule="evenodd" clip-rule="evenodd" d="M137.136 37.202C162.209 31.832 179.222 53.312 177.432 68.527L173.85 69.78C177.073 56.892 158.448 30.937 131.763 39.171L137.136 37.202Z" fill="#848688" stroke="#848688" stroke-width="0.566929"/>
<path fill-rule="evenodd" clip-rule="evenodd" d="M103.288 53.1329C126.391 30.2209 160.955 54.0279 157.553 76.0449L155.941 75.3289C155.941 54.3859 128.361 33.0849 104.542 53.4909L103.288 52.9539V53.1329Z" fill="#606062" stroke="#606062" stroke-width="0.566929"/>
<path fill-rule="evenodd" clip-rule="evenodd" d="M121.018 43.4669C146.091 38.0969 163.105 59.5769 161.314 74.7919L157.732 76.0449C160.956 63.1569 142.33 37.2019 115.646 45.4359L121.018 43.4669Z" fill="#848688" stroke="#848688" stroke-width="0.566929"/>
<path fill-rule="evenodd" clip-rule="evenodd" d="M157.552 76.2239L230.98 48.2999V50.0899L157.552 78.0139V76.2239Z" fill="#606062" stroke="#606062" stroke-width="0.566929"/>
<path fill-rule="evenodd" clip-rule="evenodd" d="M174.387 82.3099L243.516 56.1759L244.77 57.6079L174.387 83.7419V82.3099Z" fill="#606062" stroke="#606062" stroke-width="0.566929"/>
<path fill-rule="evenodd" clip-rule="evenodd" d="M243.158 54.923L173.134 81.773L174.387 82.31L244.591 55.639L243.158 54.923Z" fill="#848688" stroke="#848688" stroke-width="0.566929"/>
<path fill-rule="evenodd" clip-rule="evenodd" d="M243.337 56.1759L297.602 78.0139V79.9829L243.516 57.9659L243.337 56.1759Z" fill="#606062" stroke="#A9ABAE" stroke-width="0.566929"/>
<path fill-rule="evenodd" clip-rule="evenodd" d="M246.024 54.2069L301.184 76.7609L297.602 78.1929L243.337 56.1759L246.024 54.2069Z" fill="#848688" stroke="#373435" stroke-width="0.566929"/>
<path fill-rule="evenodd" clip-rule="evenodd" d="M173.134 81.7729L227.398 104.685V106.654L173.134 83.5629V81.7729Z" fill="#606062" stroke="#A9ABAE" stroke-width="0.566929"/>
<path fill-rule="evenodd" clip-rule="evenodd" d="M175.999 80.6989L230.98 103.432L227.398 104.864L173.134 81.7729L175.999 80.6989Z" fill="#848688" stroke="#848688" stroke-width="0.566929"/>
<path fill-rule="evenodd" clip-rule="evenodd" d="M227.398 104.864L301.004 76.9399L299.213 76.0449L225.786 104.148L227.398 104.864Z" fill="#848688" stroke="#848688" stroke-width="0.566929"/>
<path fill-rule="evenodd" clip-rule="evenodd" d="M243.158 55.2809C266.261 32.3689 300.825 56.1759 297.423 78.1929L295.811 77.4769C295.811 56.5339 268.231 35.2329 244.412 55.6389L243.158 55.1019V55.2809Z" fill="#606062" stroke="#606062" stroke-width="0.566929"/>
<path fill-rule="evenodd" clip-rule="evenodd" d="M260.709 45.4359C285.782 40.0659 302.796 61.5459 301.005 76.7608L297.423 78.0138C300.646 65.1258 282.021 39.1709 255.336 47.4049L260.709 45.4359Z" fill="#848688" stroke="#848688" stroke-width="0.566929"/>
<path fill-rule="evenodd" clip-rule="evenodd" d="M226.861 61.546C249.964 38.634 284.528 62.441 281.125 84.458L279.514 83.742C279.514 62.799 251.934 41.498 228.114 61.904L226.861 61.367V61.546Z" fill="#606062" stroke="#606062" stroke-width="0.566929"/>
<path fill-rule="evenodd" clip-rule="evenodd" d="M244.591 51.88C269.664 46.51 286.677 67.99 284.886 83.205L281.305 84.458C284.528 71.57 265.903 45.615 239.218 53.849L244.591 51.88Z" fill="#848688" stroke="#848688" stroke-width="0.566929"/>
<path fill-rule="evenodd" clip-rule="evenodd" d="M207.161 68.885C230.264 45.973 264.828 69.78 261.425 91.797L259.814 91.081C259.814 70.138 232.234 48.837 208.415 69.243L207.161 68.706V68.885Z" fill="#606062" stroke="#606062" stroke-width="0.566929"/>
<path fill-rule="evenodd" clip-rule="evenodd" d="M224.712 59.04C249.785 53.67 266.798 75.15 265.007 90.365L261.425 91.618C264.649 78.73 246.024 52.775 219.339 61.009L224.712 59.04Z" fill="#848688" stroke="#848688" stroke-width="0.566929"/>
<path fill-rule="evenodd" clip-rule="evenodd" d="M189.431 75.6869C212.533 52.7749 247.098 76.5819 243.695 98.5989L242.083 97.8829C242.083 76.9399 214.503 55.6389 190.684 76.0449L189.431 75.5079V75.6869Z" fill="#606062" stroke="#606062" stroke-width="0.566929"/>
<path fill-rule="evenodd" clip-rule="evenodd" d="M206.982 65.8419C232.054 60.4719 249.068 81.9519 247.277 97.1669L243.695 98.4199C246.919 85.5319 228.293 59.5769 201.609 67.8109L206.982 65.8419Z" fill="#848688" stroke="#848688" stroke-width="0.566929"/>
<path fill-rule="evenodd" clip-rule="evenodd" d="M173.134 81.7729C196.236 58.8609 230.801 82.6679 227.398 104.685L225.786 103.969C225.786 83.0259 198.206 61.7249 174.387 82.1309L173.134 81.5939V81.7729Z" fill="#606062" stroke="#606062" stroke-width="0.566929"/>
<path fill-rule="evenodd" clip-rule="evenodd" d="M190.864 71.9279C215.936 66.5579 232.95 88.0379 231.159 103.253L227.577 104.506C230.801 91.6179 212.176 65.6629 185.491 73.8969L190.864 71.9279Z" fill="#848688" stroke="#848688" stroke-width="0.566929"/>
<path fill-rule="evenodd" clip-rule="evenodd" d="M227.398 104.685L301.004 76.9399L300.825 78.7299L227.398 106.654V104.685Z" fill="#606062" stroke="#606062" stroke-width="0.566929"/>
<path fill-rule="evenodd" clip-rule="evenodd" d="M157.553 76.2239L177.432 68.7059C180.118 58.145 164.716 29.684 135.704 37.918L115.466 45.615C143.046 37.381 160.955 65.8419 157.553 76.4029V76.2239Z" fill="#36CF1C" fill-opacity="0.5" stroke="#606062" stroke-opacity="0.501961" stroke-width="0.566929"/>
<path fill-rule="evenodd" clip-rule="evenodd" d="M177.432 68.5269L195.162 61.7249C197.49 50.6269 183.342 24.1349 154.866 30.3999L135.704 37.7389C163.463 30.0419 180.297 56.8919 177.253 68.3479L177.432 68.5269Z" fill="#36CF1C" fill-opacity="0.5" stroke="#606062" stroke-opacity="0.501961" stroke-width="0.566929"/>
<path fill-rule="evenodd" clip-rule="evenodd" d="M194.983 61.7249L214.862 54.3859C217.369 39.8869 198.744 16.0799 172.596 23.5979L153.434 30.9369C181.193 23.2399 198.027 50.0899 194.983 61.5459V61.7249Z" fill="#36CF1C" fill-opacity="0.5" stroke="#606062" stroke-opacity="0.501961" stroke-width="0.566929"/>
<path fill-rule="evenodd" clip-rule="evenodd" d="M214.862 54.3859L230.98 48.2999C232.95 33.801 216.294 11.784 191.222 16.796L173.134 23.777C200.893 16.08 217.727 42.93 214.683 54.3859H214.862Z" fill="#36CF1C" fill-opacity="0.5" stroke="#606062" stroke-opacity="0.501961" stroke-width="0.566929"/>
<path fill-rule="evenodd" clip-rule="evenodd" d="M103.288 53.1329L157.553 76.0449C159.881 67.4529 150.031 51.7009 138.032 46.6889C128.003 42.5719 114.929 41.4979 103.288 53.1329Z" fill="#36CF1C" fill-opacity="0.5" stroke="#D2D3D5" stroke-opacity="0.501961" stroke-width="0.566929"/>
<path fill-rule="evenodd" clip-rule="evenodd" d="M227.398 104.864L247.277 97.3459C249.964 86.7849 234.562 58.3239 205.549 66.5579L185.312 74.2549C212.892 66.0209 230.801 94.4819 227.398 105.043V104.864Z" fill="#36CF1C" fill-opacity="0.5" stroke="#606062" stroke-opacity="0.501961" stroke-width="0.566929"/>
<path fill-rule="evenodd" clip-rule="evenodd" d="M247.277 96.9879L265.007 90.1859C267.335 79.0879 253.187 52.5959 224.712 58.8609L205.549 66.1999C233.308 58.5029 250.143 85.3529 247.098 96.8089L247.277 96.9879Z" fill="#36CF1C" fill-opacity="0.5" stroke="#606062" stroke-opacity="0.501961" stroke-width="0.566929"/>
<path fill-rule="evenodd" clip-rule="evenodd" d="M264.828 90.1859L284.707 82.8469C287.215 68.3479 268.589 44.541 242.442 52.0589L223.279 59.3979C251.038 51.7009 267.873 78.5509 264.828 90.0069V90.1859Z" fill="#36CF1C" fill-opacity="0.5" stroke="#606062" stroke-opacity="0.501961" stroke-width="0.566929"/>
<path fill-rule="evenodd" clip-rule="evenodd" d="M284.707 83.026L300.825 76.94C302.795 62.441 286.14 40.424 261.067 45.436L242.979 52.417C270.738 44.72 287.573 71.57 284.528 83.026H284.707Z" fill="#36CF1C" fill-opacity="0.5" stroke="#606062" stroke-opacity="0.501961" stroke-width="0.566929"/>
<path fill-rule="evenodd" clip-rule="evenodd" d="M173.134 81.773L227.398 104.685C229.726 96.093 219.876 80.341 207.877 75.329C197.848 71.212 184.774 70.138 173.134 81.773Z" fill="#36CF1C" fill-opacity="0.5" stroke="#D2D3D5" stroke-opacity="0.501961" stroke-width="0.566929"/>
<path fill-rule="evenodd" clip-rule="evenodd" d="M203.042 53.67L211.28 50.448V61.188L203.042 64.41V53.67Z" fill="#96989A" stroke="#96989A" stroke-width="0.566929"/>
<path fill-rule="evenodd" clip-rule="evenodd" d="M203.042 53.67L211.28 50.448L210.026 49.911L201.788 53.133L203.042 53.67Z" fill="#E6E7E8" stroke="#E6E7E8" stroke-width="0.566929"/>
<path fill-rule="evenodd" clip-rule="evenodd" d="M201.788 53.1331L203.042 53.6701V64.41L201.788 63.873V53.1331Z" fill="#BDBFC1" stroke="#BDBFC1" stroke-width="0.566929"/>
<path fill-rule="evenodd" clip-rule="evenodd" d="M273.066 82.31L281.305 79.088V89.828L273.066 93.05V82.31Z" fill="#96989A" stroke="#96989A" stroke-width="0.566929"/>
<path fill-rule="evenodd" clip-rule="evenodd" d="M273.066 82.31L281.125 79.088L280.051 78.551L271.634 81.773L273.066 82.31Z" fill="#E6E7E8" stroke="#E6E7E8" stroke-width="0.566929"/>
<path fill-rule="evenodd" clip-rule="evenodd" d="M271.634 81.7731L273.066 82.3101V93.05L271.634 92.5131V81.7731Z" fill="#BDBFC1" stroke="#BDBFC1" stroke-width="0.566929"/>
</svg>
